<svg xmlns="http://www.w3.org/2000/svg" width="14.481" height="19.307" viewBox="0 0 14.481 19.307">
  <g id="Group_41" data-name="Group 41" transform="translate(-248 -220)">
    <path id="fi-rr-document-signed" d="M16.3,2.512,14.97,1.178A4,4,0,0,0,12.125,0h-5.1A4.027,4.027,0,0,0,3,4.022V15.285a4.027,4.027,0,0,0,4.022,4.022h6.436a4.027,4.027,0,0,0,4.022-4.022V5.355A4,4,0,0,0,16.3,2.512ZM15.164,3.649a2.359,2.359,0,0,1,.3.373H13.458V2.011a2.494,2.494,0,0,1,.374.306Zm.707,11.636A2.413,2.413,0,0,1,13.458,17.7H7.022a2.413,2.413,0,0,1-2.413-2.413V4.022A2.413,2.413,0,0,1,7.022,1.609h4.827V4.022a1.609,1.609,0,0,0,1.609,1.609h2.413ZM13.458,7.24a.8.8,0,1,1,0,1.609H7.022a.8.8,0,1,1,0-1.609Zm.8,4.022a.8.8,0,0,1-.8.8H7.022a.8.8,0,1,1,0-1.609h6.436A.8.8,0,0,1,14.263,11.263Zm-.154,2.746a.8.8,0,0,1-.175,1.121,5.2,5.2,0,0,1-2.78.96,2.616,2.616,0,0,1-1.609-.563c-.264-.181-.364-.241-.563-.241a3.179,3.179,0,0,0-1.474.639.8.8,0,0,1-.977-1.278,4.715,4.715,0,0,1,2.454-.97,2.434,2.434,0,0,1,1.474.527,1.084,1.084,0,0,0,.7.278,3.689,3.689,0,0,0,1.832-.651A.8.8,0,0,1,14.108,14.008Z" transform="translate(245 220)" fill="#fff"/>
  </g>
</svg>
