<svg xmlns="http://www.w3.org/2000/svg" width="16" height="16" viewBox="0 0 16 16">
  <path id="fi-rr-users" d="M5,8.667a3,3,0,1,1,3-3,3,3,0,0,1-3,3ZM5,4A1.667,1.667,0,1,0,6.667,5.667,1.667,1.667,0,0,0,5,4Zm5,11.333V15A5,5,0,0,0,0,15v.333a.667.667,0,0,0,1.333,0V15a3.667,3.667,0,0,1,7.333,0v.333a.667.667,0,0,0,1.333,0ZM16,12A4.667,4.667,0,0,0,8.222,8.522a.667.667,0,1,0,.889.993A3.333,3.333,0,0,1,14.667,12,.667.667,0,0,0,16,12ZM11.667,6a3,3,0,1,1,3-3,3,3,0,0,1-3,3Zm0-4.667A1.667,1.667,0,1,0,13.333,3,1.667,1.667,0,0,0,11.667,1.333Z" fill="#fff"/>
</svg>
