<?xml version="1.0" encoding="UTF-8" standalone="no"?>
<svg
   xmlns:dc="http://purl.org/dc/elements/1.1/"
   xmlns:cc="http://creativecommons.org/ns#"
   xmlns:rdf="http://www.w3.org/1999/02/22-rdf-syntax-ns#"
   xmlns:svg="http://www.w3.org/2000/svg"
   xmlns="http://www.w3.org/2000/svg"
   viewBox="0 0 1300.9041 158.45067"
   height="158.45067"
   width="1300.9041"
   xml:space="preserve"
   id="svg2"
   version="1.1"><metadata
     id="metadata8"><rdf:RDF><cc:Work
         rdf:about=""><dc:format>image/svg+xml</dc:format><dc:type
           rdf:resource="http://purl.org/dc/dcmitype/StillImage" /></cc:Work></rdf:RDF></metadata><defs
     id="defs6"><clipPath
       id="clipPath18"
       clipPathUnits="userSpaceOnUse"><path
         id="path16"
         d="M 0,118.838 H 975.678 V 0 H 0 Z" /></clipPath></defs><g
     transform="matrix(1.3333333,0,0,-1.3333333,0,158.45067)"
     id="g10"><g
       id="g12"><g
         clip-path="url(#clipPath18)"
         id="g14"><g
           transform="translate(890.5564,100.2012)"
           id="g20"><path
             id="path22"
             style="fill:#ffffff;fill-opacity:1;fill-rule:nonzero;stroke:none"
             d="m 0,0 h -809.674 c -25.936,0 -46.963,-21.025 -46.963,-46.963 0,-25.936 21.027,-46.963 46.963,-46.963 H 0 c 25.937,0 46.963,21.027 46.963,46.963 C 46.963,-21.025 25.937,0 0,0" /></g><g
           transform="translate(884.9958,105.7627)"
           id="g24"><path
             id="path26"
             style="fill:#ff5721;fill-opacity:1;fill-rule:nonzero;stroke:none"
             d="m 0,0 h -809.675 c -25.936,0 -46.963,-21.026 -46.963,-46.963 0,-25.936 21.027,-46.963 46.963,-46.963 H 0 c 25.937,0 46.962,21.027 46.962,46.963 C 46.962,-21.026 25.937,0 0,0" /></g><g
           transform="translate(113.6326,58.7998)"
           id="g28"><path
             id="path30"
             style="fill:#ffffff;fill-opacity:1;fill-rule:nonzero;stroke:none"
             d="m 0,0 c 0,-20.215 -16.387,-36.602 -36.602,-36.602 -20.214,0 -36.602,16.387 -36.602,36.602 0,20.215 16.388,36.603 36.602,36.603 C -16.387,36.603 0,20.215 0,0" /></g><g
           transform="translate(784.8904,20.3447)"
           id="g32"><path
             id="path34"
             style="fill:#ffffff;fill-opacity:1;fill-rule:nonzero;stroke:none"
             d="m 0,0 h -666.313 c -1.025,0 -1.855,0.829 -1.855,1.854 0,1.024 0.83,1.853 1.855,1.853 H 0 C 1.024,3.707 1.854,2.878 1.854,1.854 1.854,0.829 1.024,0 0,0" /></g><g
           transform="translate(842.9753,20.3447)"
           id="g36"><path
             id="path38"
             style="fill:#ffffff;fill-opacity:1;fill-rule:nonzero;stroke:none"
             d="m 0,0 h -37.075 c -1.025,0 -1.855,0.829 -1.855,1.854 0,1.024 0.83,1.853 1.855,1.853 H 0 C 1.024,3.707 1.854,2.878 1.854,1.854 1.854,0.829 1.024,0 0,0" /></g><g
           transform="translate(870.4734,20.3447)"
           id="g40"><path
             id="path42"
             style="fill:#ffffff;fill-opacity:1;fill-rule:nonzero;stroke:none"
             d="m 0,0 h -9.269 c -1.023,0 -1.853,0.829 -1.853,1.854 0,1.024 0.83,1.853 1.853,1.853 H 0 C 1.024,3.707 1.854,2.878 1.854,1.854 1.854,0.829 1.024,0 0,0" /></g><g
           transform="translate(81.5886,47.6328)"
           id="g44"><path
             id="path46"
             style="fill:#071135;fill-opacity:1;fill-rule:nonzero;stroke:none"
             d="M 0,0 9.699,9.7 0,19.399 Z m 15.294,9.7 c 0,-0.594 -0.227,-1.186 -0.679,-1.638 L -0.679,-7.232 c -0.663,-0.663 -1.66,-0.861 -2.525,-0.502 -0.865,0.358 -1.431,1.203 -1.431,2.14 v 30.588 c 0,0.937 0.566,1.782 1.431,2.141 0.865,0.358 1.862,0.16 2.525,-0.503 L 14.615,11.338 c 0.452,-0.452 0.679,-1.045 0.679,-1.638" /></g><g
           transform="translate(81.5886,57.333)"
           id="g48"><path
             id="path50"
             style="fill:#071135;fill-opacity:1;fill-rule:nonzero;stroke:none"
             d="m 0,0 c 0,-1.28 -1.037,-2.317 -2.317,-2.317 h -19.775 c -1.28,0 -2.317,1.037 -2.317,2.317 0,1.279 1.037,2.317 2.317,2.317 H -2.317 C -1.037,2.317 0,1.279 0,0" /></g><g
           transform="translate(400.6433,42.6894)"
           id="g52"><path
             id="path54"
             style="fill:#ffffff;fill-opacity:1;fill-rule:nonzero;stroke:none"
             d="m 0,0 h -37.909 v 7.839 h 21.236 c 0,8.19 -4.446,11.818 -14.859,11.818 v 6.845 c 5.148,0 8.775,-0.352 10.939,-1.112 8.074,-2.867 12.111,-8.659 12.111,-17.493 l 8.482,0 z" /></g><path
           id="path56"
           style="fill:#ffffff;fill-opacity:1;fill-rule:nonzero;stroke:none"
           d="m 411.581,42.689 h -12.52 v 7.839 h 12.52 z" /><path
           id="path58"
           style="fill:#ffffff;fill-opacity:1;fill-rule:nonzero;stroke:none"
           d="m 427.669,32.979 h -7.255 v 6.786 h 7.255 z m 9.418,9.71 h -26.326 v 7.839 h 5.382 c 2.75,0 4.095,1.872 4.095,5.617 v 13.046 h 8.249 V 56.437 c 0,-2.165 -0.292,-4.094 -0.936,-5.909 h 9.536 z m -20.417,-9.71 h -7.254 v 6.786 h 7.254 z" /><path
           id="path60"
           style="fill:#ffffff;fill-opacity:1;fill-rule:nonzero;stroke:none"
           d="m 448.494,42.689 h -12.52 v 7.839 h 12.52 z" /><path
           id="path62"
           style="fill:#ffffff;fill-opacity:1;fill-rule:nonzero;stroke:none"
           d="m 460.077,42.689 h -12.52 v 7.839 h 12.52 z" /><path
           id="path64"
           style="fill:#ffffff;fill-opacity:1;fill-rule:nonzero;stroke:none"
           d="m 471.659,42.689 h -12.52 v 7.839 h 12.52 z" /><path
           id="path66"
           style="fill:#ffffff;fill-opacity:1;fill-rule:nonzero;stroke:none"
           d="m 483.242,42.689 h -12.52 v 7.839 h 12.52 z" /><g
           transform="translate(522.8474,42.6894)"
           id="g68"><path
             id="path70"
             style="fill:#ffffff;fill-opacity:1;fill-rule:nonzero;stroke:none"
             d="m 0,0 h -42.59 v 7.839 h 33.697 c -0.819,6.377 -5.674,11.175 -11.876,11.175 h -14.742 l 11.7,18.662 H -14.1 L -21.471,26.56 h 4.505 C -5.792,25.39 0,16.79 0,3.042 Z" /></g><g
           transform="translate(546.4207,42.6894)"
           id="g72"><path
             id="path74"
             style="fill:#ffffff;fill-opacity:1;fill-rule:nonzero;stroke:none"
             d="m 0,0 h -7.722 c -6.259,0 -9.887,3.627 -9.887,9.653 v 28.081 h 8.19 v -23.81 c 0,-3.979 0.995,-6.085 7.021,-6.085 l 2.398,0 z m -8.365,40.951 h -10.473 v 2.985 h 2.282 c -0.175,0.526 -0.234,1.052 -0.234,1.52 0,2.633 1.872,4.681 4.388,4.681 1.872,0 3.159,-0.937 3.92,-2.75 l -2.633,-1.229 c -0.235,0.82 -0.644,1.229 -1.287,1.229 -0.878,0 -1.346,-0.585 -1.346,-1.755 0,-0.878 0.293,-1.463 0.819,-1.639 h 4.564 z" /></g><path
           id="path76"
           style="fill:#ffffff;fill-opacity:1;fill-rule:nonzero;stroke:none"
           d="m 557.768,42.689 h -12.52 v 7.839 h 12.52 z" /><path
           id="path78"
           style="fill:#ffffff;fill-opacity:1;fill-rule:nonzero;stroke:none"
           d="m 569.351,42.689 h -12.52 v 7.839 h 12.52 z" /><path
           id="path80"
           style="fill:#ffffff;fill-opacity:1;fill-rule:nonzero;stroke:none"
           d="m 585.38,73.637 h -7.313 v 6.729 h 7.313 z m 0.526,-19.657 c 0,-3.1 -0.878,-5.674 -2.574,-7.722 -1.931,-2.399 -4.622,-3.569 -8.015,-3.569 h -6.962 v 7.839 h 5.207 c 2.749,0 4.154,1.931 4.154,5.734 v 12.929 h 8.19 z m -11.584,19.657 h -7.254 v 6.729 h 7.254 z" /></g></g></g></svg>