<?xml version="1.0" encoding="UTF-8" standalone="no"?>
<svg
   xmlns:dc="http://purl.org/dc/elements/1.1/"
   xmlns:cc="http://creativecommons.org/ns#"
   xmlns:rdf="http://www.w3.org/1999/02/22-rdf-syntax-ns#"
   xmlns:svg="http://www.w3.org/2000/svg"
   xmlns="http://www.w3.org/2000/svg"
   viewBox="0 0 1300.9041 332.89734"
   height="332.89734"
   width="1300.9041"
   xml:space="preserve"
   id="svg2"
   version="1.1"><metadata
     id="metadata8"><rdf:RDF><cc:Work
         rdf:about=""><dc:format>image/svg+xml</dc:format><dc:type
           rdf:resource="http://purl.org/dc/dcmitype/StillImage" /></cc:Work></rdf:RDF></metadata><defs
     id="defs6"><clipPath
       id="clipPath18"
       clipPathUnits="userSpaceOnUse"><path
         id="path16"
         d="M 0,249.673 H 975.678 V 0 H 0 Z" /></clipPath><clipPath
       id="clipPath34"
       clipPathUnits="userSpaceOnUse"><path
         id="path32"
         d="M 0,204.801 H 978.089 V 134.103 H 0 Z" /></clipPath><radialGradient
       id="radialGradient46"
       spreadMethod="pad"
       gradientTransform="matrix(543.50946,0,0,-23.566816,487.59396,169.45175)"
       gradientUnits="userSpaceOnUse"
       r="1"
       cy="0"
       cx="0"
       fy="0"
       fx="0"><stop
         id="stop40"
         offset="0"
         style="stop-opacity:1;stop-color:#001d45" /><stop
         id="stop42"
         offset="0.62858687"
         style="stop-opacity:1;stop-color:#ffffff" /><stop
         id="stop44"
         offset="1"
         style="stop-opacity:1;stop-color:#ffffff" /></radialGradient><clipPath
       id="clipPath70"
       clipPathUnits="userSpaceOnUse"><path
         id="path68"
         d="M 132.022,228.9 H 870.744 V 62.5243 H 132.022 Z" /></clipPath><linearGradient
       id="linearGradient304"
       spreadMethod="pad"
       gradientTransform="matrix(0,268.84274,268.84274,0,489.04443,-8.4396267)"
       gradientUnits="userSpaceOnUse"
       y2="0"
       x2="1"
       y1="0"
       x1="0"><stop
         id="stop300"
         offset="0"
         style="stop-opacity:1;stop-color:#0069b4" /><stop
         id="stop302"
         offset="1"
         style="stop-opacity:1;stop-color:#004070" /></linearGradient><clipPath
       id="clipPath314"
       clipPathUnits="userSpaceOnUse"><path
         id="path312"
         d="M 0,249.673 H 975.678 V 0 H 0 Z" /></clipPath></defs><g
     transform="matrix(1.3333333,0,0,-1.3333333,0,332.89733)"
     id="g10"><g
       id="g12"><g
         clip-path="url(#clipPath18)"
         id="g14"><g
           transform="translate(116.8952,161.5459)"
           id="g20"><path
             id="path22"
             style="fill:#0e2050;fill-opacity:1;fill-rule:nonzero;stroke:none"
             d="M 0,0 C 0,0 0.988,88.945 43.488,45.461 85.989,1.976 50.407,5.93 50.407,5.93 Z" /></g><g
           transform="translate(859.282,161.5459)"
           id="g24"><path
             id="path26"
             style="fill:#0e2050;fill-opacity:1;fill-rule:nonzero;stroke:none"
             d="M 0,0 C 0,0 -0.988,88.945 -43.489,45.461 -85.989,1.976 -50.408,5.93 -50.408,5.93 Z" /></g><g
           id="g28"><g
             id="g30" /><g
             id="g60"><g
               id="g58"
               clip-path="url(#clipPath34)"><g
                 id="g56"><g
                   id="g54"><g
                     id="g52"><g
                       id="g50"><path
                         id="path48"
                         style="fill:none;stroke:none"
                         d="M 487.594,204.801 C 273.727,204.801 88.717,196.768 0,185.087 v -31.271 c 88.717,-11.679 273.727,-19.713 487.594,-19.713 216.226,0 402.956,8.211 490.495,20.101 v 30.495 c -87.539,11.89 -274.269,20.102 -490.495,20.102" /></g></g></g></g></g></g></g><path
           id="path62"
           style="fill:none;fill-opacity:1;fill-rule:evenodd;stroke:none"
           d="M 978.089,25.162 H 0 v 142.602 h 978.089 z" /><g
           id="g64"><g
             id="g66" /><g
             id="g286"><g
               style="opacity:0.60000598"
               id="g284"
               clip-path="url(#clipPath70)"><g
                 id="g74"
                 transform="translate(870.3318,212.6201)"><path
                   id="path72"
                   style="fill:#fefefe;fill-opacity:1;fill-rule:nonzero;stroke:none"
                   d="m 0,0 c -3.244,6.135 -6.548,12.221 -13.041,15.648 4.251,0 10.469,1.671 12.25,-0.425 C 1.404,12.639 -0.093,6.916 -0.002,2.551 0.016,1.701 0,0.851 0,0" /></g><g
                 id="g78"
                 transform="translate(192.1902,63.9658)"><path
                   id="path76"
                   style="fill:#fdfdfd;fill-opacity:1;fill-rule:nonzero;stroke:none"
                   d="m 0,0 c -13.439,0.816 -19.631,10.02 -23.299,21.189 -11.799,35.933 -23.228,71.988 -34.712,108.024 -0.637,2.002 -0.468,4.262 -0.675,6.402 -0.992,2.608 -0.992,5.216 0,7.823 0.79,11.244 9.2,18.737 21.98,19.539 1.731,0.109 3.476,0.021 5.214,0.021 225.73,0.001 451.461,-0.005 677.191,0.045 4.158,0.001 8.19,-0.4 12.201,-1.412 13.352,-3.364 18.306,-14.539 15.395,-26.422 C 668.234,114.556 659.505,95.111 652.322,75.164 646.028,57.687 638.45,40.685 632.506,23.054 628.615,11.514 622.669,1.754 609.023,0 c -2.257,-1.195 -4.695,-0.603 -7.04,-0.603 -198.315,-0.032 -396.63,-0.032 -594.946,0 C 4.693,-0.603 2.258,-1.194 0,0" /></g><g
                 id="g82"
                 transform="translate(192.1902,63.9658)"><path
                   id="path80"
                   style="fill:#fdfdfd;fill-opacity:1;fill-rule:nonzero;stroke:none"
                   d="m 0,0 h 609.023 c -1.924,-2.135 -4.477,-1.267 -6.757,-1.268 C 403.763,-1.307 205.261,-1.307 6.759,-1.268 4.479,-1.267 1.925,-2.135 0,0" /></g><g
                 id="g86"
                 transform="translate(133.5046,207.4043)"><path
                   id="path84"
                   style="fill:#fdfdfd;fill-opacity:1;fill-rule:nonzero;stroke:none"
                   d="M 0,0 V -7.823 C -1.977,-5.216 -1.977,-2.607 0,0" /></g><g
                 id="g90"
                 transform="translate(861.2048,202.4707)"><path
                   id="path88"
                   style="fill:#f8f8f8;fill-opacity:1;fill-rule:nonzero;stroke:none"
                   d="m 0,0 c -0.446,-4.082 -4.019,-9.734 -5.254,-15.864 -1.244,-6.168 -3.609,-11.895 -6.134,-17.286 -3.197,-6.83 -4.166,-14.31 -7.882,-21.047 -2.773,-5.03 -3.638,-11.22 -6.268,-16.746 -3.421,-7.19 -5.634,-15.075 -8.105,-22.634 -2.122,-6.492 -5.234,-12.761 -6.308,-19.827 -1.965,-12.926 -12.025,-18.858 -26.133,-20.072 -64.692,-5.565 -129.47,-1.404 -194.196,-2.237 -64.737,-0.833 -129.492,-0.183 -194.241,-0.183 -64.964,0 -129.929,0.004 -194.894,-0.004 -8.557,-0.002 -16.943,2.107 -25.199,3.558 -7.101,1.248 -10.891,9.743 -12.869,16.169 -2.419,7.856 -6.356,15.424 -7.229,23.629 -1.236,11.616 -8.681,21.173 -10.268,32.415 -1.627,11.523 -8.641,21.155 -10.342,32.389 -1.138,7.507 -4.372,14.084 -7.278,20.728 -3.483,7.967 1.497,20.876 9.31,24.988 0.95,0.5 2.227,1.377 2.982,1.093 7.159,-2.686 13.737,1.533 20.654,1.532 218.577,-0.025 437.154,0.085 655.73,-0.422 8.31,-0.02 17.717,0.656 25.754,-3.79 C -1.538,12.721 -0.008,9.814 0,0" /></g><g
                 id="g94"
                 transform="translate(499.364,219.1406)"><path
                   id="path92"
                   style="fill:#f2f2f2;fill-opacity:1;fill-rule:nonzero;stroke:none"
                   d="m 0,0 c 111.676,0 223.353,-0.003 335.029,0.012 4.122,10e-4 8.157,-0.2 12.233,-1.165 6.605,-1.564 10.134,-5.784 10.743,-12.587 0.726,-8.11 -2.131,-15.41 -4.73,-22.662 -11.06,-30.86 -22.47,-61.593 -33.706,-92.389 -5.314,-14.565 -12.735,-19.861 -28.197,-19.861 -195.977,-0.004 -391.955,-0.025 -587.933,0.036 -17.533,0.006 -22.092,4 -27.639,19.869 -7.561,21.63 -13.47,43.836 -20.986,65.482 -4.116,11.857 -7.501,23.927 -11.467,35.819 -2.559,7.672 -3.82,15.995 3.391,22.905 4.02,3.853 8.604,4.545 13.669,4.544 C -281.365,-0.003 -223.137,0 -164.908,0 Z" /></g><g
                 id="g98"
                 transform="translate(499.6306,216.5322)"><path
                   id="path96"
                   style="fill:#e4e4e4;fill-opacity:1;fill-rule:nonzero;stroke:none"
                   d="m 0,0 c 111.936,0.001 223.871,0.001 335.806,-0.001 1.956,0 3.927,0.138 5.865,-0.053 11.332,-1.116 16.323,-8.767 12.702,-20.571 -3.269,-10.659 -7.29,-21.092 -11.099,-31.582 -6.453,-17.774 -12.983,-35.522 -19.515,-53.268 -3.112,-8.455 -5.858,-17.085 -9.584,-25.264 -3.788,-8.313 -10.489,-12.754 -20.127,-12.751 -198.006,0.07 -396.012,0.048 -594.017,0.064 -11.191,10e-4 -16.43,3.77 -20.933,16.539 -12.228,34.676 -23.377,69.716 -33.666,105.012 -4.116,14.114 2.25,21.87 16.807,21.871 C -225.174,0.003 -112.587,0 0,0" /></g><g
                 id="g102"
                 transform="translate(809.0574,84.8154)"><path
                   id="path100"
                   style="fill:#d3d2d2;fill-opacity:1;fill-rule:nonzero;stroke:none"
                   d="m 0,0 c -2.008,-6.863 -7.912,-7.953 -13.684,-9.027 -2.1,-0.392 -4.333,-0.085 -6.505,-0.085 -194.231,-10e-4 -388.462,0.093 -582.693,-0.153 -18.764,-0.024 -24.083,6.009 -28.316,24.934 3.755,-0.22 4.236,-3.445 5.029,-5.966 3.461,-11 10.781,-14.562 22.193,-14.548 194.37,0.251 388.74,0.177 583.11,0.201 4.308,0.001 8.72,-0.613 12.806,1.417 2.443,0.935 4.35,2.96 6.993,3.518 C -0.712,0.195 -0.355,0.098 0,0" /></g><g
                 id="g106"
                 transform="translate(173.9324,112.2119)"><path
                   id="path104"
                   style="fill:#d6d5d5;fill-opacity:1;fill-rule:nonzero;stroke:none"
                   d="m 0,0 c -4.905,9.946 -7.174,20.786 -10.554,31.246 -5.391,16.69 -10.945,33.338 -15.774,50.192 -3.995,13.948 1.15,20.274 15.426,20.274 225.335,0.004 450.669,0 676.003,-0.003 1.188,-1.015 5.043,-1.237 1.12,-3.777 -5.232,-1.445 -10.284,0.742 -15.492,0.739 C 433.871,98.55 217.013,98.562 0.154,98.611 c -4.386,10e-4 -8.629,-0.757 -12.926,-1.298 -8.269,-1.042 -10.532,-3.75 -10.121,-11.948 0.133,-2.657 1.04,-5.09 1.76,-7.571 C -14.008,54.74 -7.484,31.487 0.082,8.555 0.689,6.715 1.338,4.871 1.309,2.884 1.231,1.76 0.904,0.748 0,0" /></g><g
                 id="g110"
                 transform="translate(173.9392,114.832)"><path
                   id="path108"
                   style="fill:#c3c2c2;fill-opacity:1;fill-rule:nonzero;stroke:none"
                   d="m 0,0 -22.172,73.014 c 0.544,0.497 1.176,0.669 1.897,0.519 4.341,-3.62 4.522,-9.11 6.092,-13.921 4.688,-14.357 8.848,-28.888 14.33,-42.978 3.455,-6.303 4.6,-13.361 6.588,-20.145 0.516,-6.55 3.135,-12.482 5.447,-18.504 2.233,-5.814 6.112,-9.809 12.401,-11.139 3.27,-0.356 6.531,-0.211 9.786,-0.211 192.244,-0.008 384.488,-0.008 576.732,0 3.038,0 6.084,-0.17 9.093,0.28 0.741,0.231 1.455,0.542 2.117,0.961 1.016,0.521 2.105,0.814 3.242,0.93 1.472,0.112 2.892,-0.059 4.165,-0.894 0.613,-0.556 0.664,-1.163 0.152,-1.819 -3.797,-2.597 -8.072,-2.669 -12.479,-2.668 -195.957,0.043 -391.915,0.035 -587.873,0.037 -13.262,0 -16.432,2.181 -21.673,14.137 -1.192,2.718 -1.276,6.034 -3.925,8.053 -0.463,2.585 -0.927,5.17 -1.39,7.755 C 0.409,-4.886 1.212,-2.057 0,0" /></g><g
                 id="g114"
                 transform="translate(848.1619,186.541)"><path
                   id="path112"
                   style="fill:#d9d8d8;fill-opacity:1;fill-rule:nonzero;stroke:none"
                   d="m 0,0 c -6.017,-16.977 -13.059,-33.585 -18.258,-50.855 -0.623,-0.459 -1.205,-0.412 -1.748,0.141 -0.778,1.202 -0.798,2.505 -0.525,3.849 1.28,4.004 2.598,7.999 3.953,11.985 4.084,9.725 7.231,19.799 11.093,29.605 0.847,2.151 1.14,4.682 3.635,5.82 C -1.143,0.672 -0.525,0.489 0,0" /></g><g
                 id="g118"
                 transform="translate(828.5935,135.6865)"><path
                   id="path116"
                   style="fill:#dbdada;fill-opacity:1;fill-rule:nonzero;stroke:none"
                   d="m 0,0 c 0.437,0 0.874,-0.001 1.311,-0.001 -2.299,-6.718 -4.569,-13.445 -6.917,-20.145 -0.575,-1.636 -1.333,-3.261 -3.481,-3.344 -2.055,2.114 -0.667,4.435 -0.417,6.691 0.737,2.863 1.561,5.696 3.241,8.188 C -3.158,-6.485 -4.748,-0.93 0,0" /></g><g
                 id="g122"
                 transform="translate(848.1619,186.541)"><path
                   id="path120"
                   style="fill:#d6d5d5;fill-opacity:1;fill-rule:nonzero;stroke:none"
                   d="m 0,0 c -0.439,0.002 -0.879,0.004 -1.318,0.005 -1.387,1.43 -1.277,3.152 -0.669,4.78 2.75,7.365 2.287,14.062 -3.811,19.695 0.138,1.116 0.479,1.994 1.891,1.607 0.867,-0.438 1.735,-0.876 2.603,-1.314 1.612,-0.995 2.914,-2.3 3.912,-3.91 C 5.763,13.406 1.406,6.888 0,0" /></g><g
                 id="g126"
                 transform="translate(820.7429,118.7529)"><path
                   id="path124"
                   style="fill:#c7c5c6;fill-opacity:1;fill-rule:nonzero;stroke:none"
                   d="m 0,0 c -0.412,-2.186 -0.825,-4.371 -1.237,-6.557 0.478,-3.43 -2.464,-5.871 -2.638,-9.113 -1.345,-1.713 -1.564,-3.917 -2.525,-5.791 -0.638,-1.242 -1.138,-3.056 -3.157,-1.476 -0.376,8.373 3.745,15.307 7.249,22.421 C -1.937,0.235 -0.872,0.259 0,0" /></g><g
                 id="g130"
                 transform="translate(811.6345,95.2735)"><path
                   id="path128"
                   style="fill:#d3d2d2;fill-opacity:1;fill-rule:nonzero;stroke:none"
                   d="M 0,0 C 3.028,1.742 1.666,6.428 5.233,7.81 3.812,1.216 2.413,-5.39 -2.577,-10.458 l -0.026,0.02 c -1.334,1.298 -0.659,2.756 -0.348,4.19 0.649,1.937 1.138,3.944 2.265,5.695 C -0.46,-0.366 -0.229,-0.184 0,0" /></g><g
                 id="g134"
                 transform="translate(173.9392,114.832)"><path
                   id="path132"
                   style="fill:#d2d1d2;fill-opacity:1;fill-rule:nonzero;stroke:none"
                   d="m 0,0 c 1.74,-1.853 2.107,-4.233 2.531,-6.593 -2.555,0.234 -2.56,2.095 -2.538,3.973 C -0.005,-1.746 -0.002,-0.873 0,0" /></g><g
                 id="g138"
                 transform="translate(844.2546,212.6279)"><path
                   id="path136"
                   style="fill:#dbdada;fill-opacity:1;fill-rule:nonzero;stroke:none"
                   d="m 0,0 c -0.437,-0.433 -0.873,-0.864 -1.309,-1.296 -0.44,-0.41 -0.87,-0.4 -1.292,0.028 -0.874,0.854 -1.747,1.707 -2.621,2.561 C -3.417,1.122 -1.378,1.894 0,0" /></g><g
                 id="g142"
                 transform="translate(850.7703,207.4043)"><path
                   id="path140"
                   style="fill:#d9d8d8;fill-opacity:1;fill-rule:nonzero;stroke:none"
                   d="M 0,0 C -1.758,0.851 -3.061,2.154 -3.912,3.91 -1.42,3.796 -0.118,2.49 0,0" /></g><g
                 id="g146"
                 transform="translate(810.3367,88.751)"><path
                   id="path144"
                   style="fill:#cdcccd;fill-opacity:1;fill-rule:nonzero;stroke:none"
                   d="m 0,0 c -0.436,-1.306 -0.87,-2.61 -1.305,-3.916 -1.741,-1.303 -3.481,-2.606 -5.222,-3.91 0,0.437 0.001,0.875 0.001,1.311 -0.866,2.95 2.236,4.29 2.704,6.702 0.269,0.515 0.625,0.959 1.064,1.337 C -1.304,1.984 -0.719,0.872 0,0" /></g><g
                 id="g150"
                 transform="translate(841.6541,211.3604)"><path
                   id="path148"
                   style="fill:#c1c0c0;fill-opacity:1;fill-rule:nonzero;stroke:none"
                   d="m 0,0 c 0.431,-0.027 0.861,-0.038 1.292,-0.028 7.427,-6.012 8.26,-8.993 5.35,-18.521 -0.624,-2.046 -0.976,-4.175 -1.453,-6.265 -4.784,-9.476 -7.351,-19.808 -11.395,-29.572 -0.822,-1.986 -1.075,-4.216 -2.911,-5.665 -0.242,0.244 -0.485,0.488 -0.731,0.731 -0.699,1.254 -0.842,2.618 -0.807,4.021 1.905,8.652 5.809,16.612 8.747,24.907 1.796,5.074 3.563,10.14 4.965,15.349 0.298,8.639 -2.121,11.324 -10.714,11.796 -2.386,0.131 -4.781,0.055 -7.17,0.055 -218.157,0.001 -436.315,0.002 -654.472,-0.008 -3.257,0 -6.522,0.169 -9.751,-0.285 -8.908,-2.315 -10.054,-3.964 -8.809,-13.248 0.315,-2.357 1.233,-4.678 -0.686,-6.769 -0.447,-0.005 -0.894,-0.009 -1.342,-0.013 -2.128,4.157 -2.638,8.566 -2.724,13.214 -0.111,6.01 3.411,8.914 8.341,9.989 5.025,1.095 10.291,1.489 15.453,1.491 217.559,0.068 435.118,0.067 652.677,0.007 C -10.76,1.185 -5.38,0.413 0,0" /></g><g
                 id="g154"
                 transform="translate(797.3513,82.1748)"><path
                   id="path152"
                   style="fill:#aba9aa;fill-opacity:1;fill-rule:nonzero;stroke:none"
                   d="m 0,0 c -0.02,-0.417 -0.043,-0.833 -0.068,-1.249 -2.256,-1.21 -4.694,-0.61 -7.037,-0.61 -195.703,-0.033 -391.404,-0.033 -587.105,-0.001 -2.345,0.001 -4.782,-0.59 -7.041,0.601 -4.376,0.679 -7.395,3.229 -9.349,7.049 -3.708,7.251 -6.804,14.722 -7.601,22.944 3.541,0.387 3.957,-2.477 4.737,-4.75 1.024,-2.978 1.527,-6.127 2.836,-9.021 2.041,-5.048 4.417,-9.818 9.822,-12.172 4.021,-1.509 8.194,-0.867 12.285,-0.867 C -396.308,1.889 -204.096,1.901 -11.884,1.838 -7.892,1.836 -3.572,3.072 0,0" /></g><g
                 id="g158"
                 transform="translate(797.3513,82.1748)"><path
                   id="path156"
                   style="fill:#999798;fill-opacity:1;fill-rule:nonzero;stroke:none"
                   d="m 0,0 c -197.64,0.013 -395.279,0.021 -592.919,0.064 -3.807,0.001 -7.933,-0.944 -10.946,2.586 1.228,1.246 2.757,1.284 4.355,1.09 0.793,-0.184 1.585,-0.339 2.396,-0.438 4.351,-0.207 8.697,-0.101 13.04,-0.101 189.629,-0.006 379.258,-0.005 568.886,0 3.692,0 7.385,-0.097 11.053,0.149 5.95,0.98 8.52,5.524 10.807,10.352 2.783,3.05 1.832,8.31 6.154,10.455 0.667,0.006 1.271,-0.188 1.813,-0.577 C 16.052,19.828 13.076,16.869 12.808,13.42 11.932,10.446 9.264,8.386 8.656,5.271 7.15,2.903 4.924,1.39 2.506,0.104 1.671,0.069 0.836,0.034 0,0" /></g><g
                 id="g162"
                 transform="translate(196.1003,80.916)"><path
                   id="path160"
                   style="fill:#b1afb0;fill-opacity:1;fill-rule:nonzero;stroke:none"
                   d="m 0,0 c 200.395,0.003 400.788,0.006 601.183,0.01 -1.92,-2.143 -4.477,-1.277 -6.754,-1.278 C 398.541,-1.308 202.652,-1.308 6.765,-1.269 4.481,-1.269 1.932,-2.11 0,0" /></g><g
                 id="g166"
                 transform="translate(185.6697,96.5654)"><path
                   id="path164"
                   style="fill:#9a9899;fill-opacity:1;fill-rule:nonzero;stroke:none"
                   d="m 0,0 c -3.781,4.051 -1.42,10.893 -6.52,14.344 -2.208,6.519 -2.997,13.508 -6.484,19.603 -5.005,18.969 -11.675,37.422 -17.423,56.161 -1.139,3.714 -2.421,7.408 -2.759,11.289 -0.244,2.806 -0.18,5.687 2.625,7.512 1.022,0.361 2.011,0.302 2.96,-0.233 0.25,-5.323 -1.835,-10.841 1.322,-15.925 1.345,-4.289 2.696,-8.578 3.876,-12.917 1.412,-4.503 2.447,-9.153 5.169,-13.146 1.124,-2.041 1.748,-4.229 1.955,-6.542 0.967,-6.4 2.447,-12.634 5.92,-18.225 2.129,-4.615 3.855,-9.358 4.56,-14.423 C -4.085,19.259 0.167,11.956 1.475,3.868 1.466,2.395 1.206,1.015 0,0" /></g><g
                 id="g170"
                 transform="translate(155.6745,204.7969)"><path
                   id="path168"
                   style="fill:#aba9aa;fill-opacity:1;fill-rule:nonzero;stroke:none"
                   d="m 0,0 c -2.924,-2.699 -3.002,-5.871 -1.86,-9.452 4.829,-15.145 9.502,-30.339 14.349,-45.478 2.031,-6.341 4.092,-12.649 4.502,-19.354 -4.787,14.278 -9.617,28.542 -14.339,42.842 -1.612,4.883 -2.528,10.009 -5.217,14.504 -0.456,3.798 -1.204,7.59 -1.305,11.399 C -4.049,1.218 -1.828,3.35 5.21,3.923 5.34,3.665 5.47,3.406 5.602,3.148 5.5,2.561 5.218,2.077 4.76,1.696 3.395,0.512 1.359,1.208 0,0" /></g><g
                 id="g174"
                 transform="translate(799.8572,82.2783)"><path
                   id="path172"
                   style="fill:#b3b1b2;fill-opacity:1;fill-rule:nonzero;stroke:none"
                   d="M 0,0 C 1.308,2.162 3.021,3.914 5.223,5.174 5.986,5.854 6.386,7.281 7.877,6.464 8,3.433 4.921,2.332 3.954,-0.042 2.636,-0.027 1.317,-0.014 0,0" /></g><g
                 id="g178"
                 transform="translate(828.5935,135.6865)"><path
                   id="path176"
                   style="fill:#c7c5c6;fill-opacity:1;fill-rule:nonzero;stroke:none"
                   d="m 0,0 c -2.776,-2.449 -1.321,-7.322 -5.226,-9.126 -1.907,-0.378 -1.933,0.99 -2.093,2.242 0.168,1.545 0.682,2.98 1.435,4.333 1.87,1.899 2.315,4.728 4.259,6.586 C -1.05,4.289 -0.499,4.242 0.027,3.9 0.019,2.601 0.01,1.301 0,0" /></g><g
                 id="g182"
                 transform="translate(828.6208,139.5869)"><path
                   id="path180"
                   style="fill:#c1c0c0;fill-opacity:1;fill-rule:nonzero;stroke:none"
                   d="m 0,0 c -0.436,-0.001 -0.872,-0.002 -1.309,-0.003 -0.499,0.434 -0.864,0.958 -1.08,1.585 -0.507,3.085 0.56,5.722 2.326,8.163 1.146,0.989 1.979,2.614 3.941,2.011 L 3.915,11.724 C 3.467,7.529 2.261,3.589 0,0" /></g><g
                 id="g186"
                 transform="translate(822.1306,129.125)"><path
                   id="path184"
                   style="fill:#b3b1b2;fill-opacity:1;fill-rule:nonzero;stroke:none"
                   d="m 0,0 c 0,-1.054 0.177,-2.022 1.237,-2.564 -0.875,-2.603 -1.749,-5.206 -2.624,-7.808 -5.011,-7.061 -6.95,-15.314 -9.109,-23.481 0,0.001 0.002,-0.002 0.002,-0.002 -1.108,-0.723 -0.232,-3.632 -2.902,-2.632 -0.379,0.934 -0.426,1.832 0.294,2.644 0.878,3.469 1.757,6.938 2.635,10.407 0.236,7.825 4.577,14.38 6.678,21.632 0.449,0.891 1.098,1.593 1.975,2.077 C -1.167,0.473 -0.562,0.381 0,0" /></g><g
                 id="g190"
                 transform="translate(809.0583,92.6055)"><path
                   id="path188"
                   style="fill:#c7c5c6;fill-opacity:1;fill-rule:nonzero;stroke:none"
                   d="M 0,0 C 0.859,0.888 1.719,1.776 2.578,2.664 2.145,0.491 1.711,-1.682 1.278,-3.854 0.446,-3.435 -0.385,-3.014 -1.216,-2.594 -2.128,-1.111 -0.988,-0.591 0,0" /></g><g
                 id="g194"
                 transform="translate(809.0583,92.6055)"><path
                   id="path192"
                   style="fill:#b1afb0;fill-opacity:1;fill-rule:nonzero;stroke:none"
                   d="m 0,0 c -0.406,-0.864 -0.812,-1.729 -1.218,-2.593 -0.046,-0.423 -0.081,-0.846 -0.106,-1.27 -0.885,-0.431 -1.769,-0.861 -2.655,-1.29 0.652,2.945 1.803,5.638 3.95,7.829 C -0.02,1.784 -0.01,0.892 0,0" /></g><g
                 id="g198"
                 transform="translate(160.8845,208.7197)"><path
                   id="path196"
                   style="fill:#aba9aa;fill-opacity:1;fill-rule:nonzero;stroke:none"
                   d="m 0,0 c 1.947,2.087 4.494,1.243 6.78,1.244 221.657,0.038 443.315,0.039 664.972,0.025 12.394,-10e-4 16.673,-5.255 12.934,-15.656 -0.829,0.644 -1.215,1.537 -1.445,2.522 -0.267,6.672 -5.21,8.41 -10.439,9.859 -3.711,0.251 -7.406,0.143 -11.097,0.143 C 445.13,-1.857 228.554,-1.865 11.979,-1.811 7.958,-1.81 3.661,-2.907 0.023,-0.027 Z" /></g><g
                 id="g202"
                 transform="translate(845.5398,196.9863)"><path
                   id="path200"
                   style="fill:#a7a5a6;fill-opacity:1;fill-rule:nonzero;stroke:none"
                   d="m 0,0 c 0.01,-0.884 0.02,-1.769 0.03,-2.652 -2.298,-11.715 -7.919,-22.279 -11.638,-33.502 -0.61,-1.837 -1.645,-3.524 -1.437,-5.559 -1.155,-2.066 -1.485,-4.465 -2.626,-6.537 -1.862,-2.271 -2.493,-4.95 -2.59,-7.807 -1.348,-2.591 -1.824,-5.612 -3.858,-7.868 -0.11,-1.417 0.2,-2.971 -1.29,-3.936 -0.452,0.013 -0.903,0.027 -1.356,0.042 -2.007,2.192 -0.926,4.572 -0.127,6.712 3.48,9.304 6.395,18.818 10.326,27.955 4.509,9.185 7.045,19.131 11.007,28.522 C -2.813,-2.862 -3.204,0.031 0,0" /></g><g
                 id="g206"
                 transform="translate(829.8689,148.7363)"><path
                   id="path204"
                   style="fill:#bdbbbc;fill-opacity:1;fill-rule:nonzero;stroke:none"
                   d="M 0,0 C -0.016,2.537 0.6,4.82 2.627,6.537 2.628,5.227 2.629,3.917 2.63,2.606 1.753,1.737 0.877,0.869 0,0" /></g><g
                 id="g210"
                 transform="translate(185.6697,96.5654)"><path
                   id="path208"
                   style="fill:#929090;fill-opacity:1;fill-rule:nonzero;stroke:none"
                   d="m 0,0 c 0.003,1.307 0.006,2.612 0.008,3.918 0.906,0.303 1.826,0.097 2.184,-0.707 2.44,-5.464 5.575,-10.469 9.541,-14.95 -1.305,0 -2.611,-10e-4 -3.917,-10e-4 C 3.358,-9.06 1.178,-4.863 0,0" /></g><g
                 id="g214"
                 transform="translate(197.4031,84.8262)"><path
                   id="path212"
                   style="fill:#868484;fill-opacity:1;fill-rule:nonzero;stroke:none"
                   d="m 0,0 c -7.754,2.34 -7.766,10.478 -11.726,15.657 -1.893,7.904 -5.727,15.269 -6.514,23.479 3.947,1.421 4.313,-2.035 5.181,-4.154 2.551,-6.227 3.824,-12.881 6.052,-19.23 C -3.492,5.739 0.023,3.162 10.77,3.158 85.908,3.133 161.047,3.146 236.186,3.146 c 116.617,0 233.234,0.002 349.851,-0.014 4.803,-0.001 9.552,-0.022 13.892,2.523 3.1,1.818 3.358,6.176 6.896,7.566 2.021,-0.38 1.481,-1.592 0.914,-2.814 -1.801,-4.565 -3.612,-9.121 -9.143,-10.41 -2.262,-1.183 -4.698,-0.597 -7.043,-0.597 -194.835,-0.031 -389.67,-0.031 -584.505,0 -2.347,0 -4.784,-0.586 -7.046,0.599 z" /></g><g
                 id="g218"
                 transform="translate(197.405,84.8252)"><path
                   id="path216"
                   style="fill:#929090;fill-opacity:1;fill-rule:nonzero;stroke:none"
                   d="m 0,0 c 199.531,-0.001 399.062,-0.001 598.594,-0.002 -1.93,-2.121 -4.482,-1.264 -6.763,-1.264 -195.023,-0.04 -390.046,-0.04 -585.069,0 C 4.48,-1.266 1.929,-2.124 0,0" /></g><g
                 id="g222"
                 transform="translate(819.5017,127.8496)"><path
                   id="path220"
                   style="fill:#979596;fill-opacity:1;fill-rule:nonzero;stroke:none"
                   d="m 0,0 c -1.411,-7.812 -4.774,-14.934 -7.838,-22.16 -0.452,0.006 -0.905,0.012 -1.358,0.017 -2.172,2.734 -0.233,5.139 0.601,7.638 0.73,2.187 1.533,4.356 1.726,6.684 0.697,3.033 1.641,5.947 3.994,8.174 C -1.849,0.801 -0.881,0.752 0,0" /></g><g
                 id="g226"
                 transform="translate(814.2615,120.0352)"><path
                   id="path224"
                   style="fill:#888686;fill-opacity:1;fill-rule:nonzero;stroke:none"
                   d="m 0,0 c 0.224,-5.201 -3.862,-9.214 -3.955,-14.328 -2.748,-2.985 -1.862,-7.761 -5.164,-10.473 -0.009,0.885 -0.018,1.771 -0.027,2.656 -0.984,8.538 2.473,15.636 7.23,22.318 C -1.24,0.53 -0.602,0.471 0,0" /></g><g
                 id="g230"
                 transform="translate(812.9412,120.041)"><path
                   id="path228"
                   style="fill:#706e6e;fill-opacity:1;fill-rule:nonzero;stroke:none"
                   d="m 0,0 c -3.342,-7.124 -6.19,-14.423 -7.825,-22.15 -4.288,-10.789 -13.04,-11.886 -23.276,-11.877 -190.969,0.173 -381.939,0.127 -572.908,0.13 -13.26,0 -16.504,2.328 -20.642,15.039 -1.944,5.966 -3.573,12.038 -5.606,17.972 -0.627,1.832 -0.444,4.625 -3.521,4.807 -0.201,5.08 -3.068,9.424 -3.955,14.313 -2.625,5.931 -2.997,12.66 -6.478,18.287 -0.449,2.163 -0.898,4.326 -1.347,6.49 -1.603,4.229 -3.251,8.445 -4.028,12.938 -0.5,1.8 -1.472,3.728 1.299,4.604 3.723,-0.907 3.926,-4.323 4.853,-7.071 8.046,-23.847 15.315,-47.946 23.171,-71.855 3.411,-10.384 4.445,-11.089 15.329,-11.09 192.476,-0.012 384.952,-0.012 577.427,0 10.664,0.001 11.461,0.794 15.766,10.933 3.637,8.569 5.5,17.843 10.356,25.912 0.609,0.547 1.329,0.822 2.147,0.831 C 3.901,5.164 0.361,2.729 0,0" /></g><g
                 id="g234"
                 transform="translate(163.5535,180.0381)"><path
                   id="path232"
                   style="fill:#838181;fill-opacity:1;fill-rule:nonzero;stroke:none"
                   d="M 0,0 C 0.401,-1.312 0.803,-2.625 1.204,-3.938 0.342,-4.701 -0.522,-4.703 -1.39,-3.945 -3.199,0.248 -4.707,4.53 -5.28,9.092 -8.876,23.128 -6.229,26.586 8.417,26.587 c 218.254,0.023 436.508,0.018 654.762,0.011 1.519,0 3.042,0.027 4.558,-0.085 9.45,-0.702 12.484,-4.748 10.656,-14.162 -1.98,-8.702 -5.537,-16.874 -8.672,-25.189 -4.574,-9.196 -7.029,-19.21 -11.021,-28.611 -1.231,-2.901 -0.685,-7.669 -5.761,-8.018 -0.439,0.663 -0.694,1.374 -0.784,2.161 2.996,12.488 8.367,24.148 12.49,36.238 2.659,7.798 6.099,15.331 8.257,23.301 1.625,5.999 0.407,7.78 -5.651,9.02 -2.365,0.484 -4.76,0.352 -7.143,0.352 C 443.566,21.622 227.024,21.625 10.482,21.574 6.115,21.573 1.238,22.646 -1.771,17.9 -2.018,14.222 -0.926,10.773 0.028,7.291 0.69,4.877 1.89,2.421 0,0" /></g><g
                 id="g238"
                 transform="translate(832.5095,166.9834)"><path
                   id="path236"
                   style="fill:#9d9c9c;fill-opacity:1;fill-rule:nonzero;stroke:none"
                   d="m 0,0 7.834,23.458 c 1.019,1.488 0.899,3.315 1.396,4.961 1.336,4.43 -0.208,7.466 -4.808,9.041 -2.336,0.799 -4.615,1.032 -7.01,1.032 -220.512,-0.008 -441.022,-0.022 -661.534,0.135 -3.456,0.003 -6.59,-2.621 -10.09,-0.821 -0.874,0.003 -1.749,0.006 -2.623,0.007 1.325,1.697 3.152,2.389 5.216,2.612 2.259,1.191 4.696,0.599 7.041,0.599 220.482,0.032 440.965,0.032 661.447,10e-4 2.347,-10e-4 4.782,0.58 7.046,-0.592 5.43,-1.387 9.573,-3.898 9.115,-10.43 C 8.681,18.706 4.33,7.409 -0.021,-3.889 -0.964,-2.587 -0.869,-1.291 0,0" /></g><g
                 id="g242"
                 transform="translate(158.2976,204.7891)"><path
                   id="path240"
                   style="fill:#868484;fill-opacity:1;fill-rule:nonzero;stroke:none"
                   d="M 0,0 C 6.161,1.639 12.459,1.309 18.735,1.309 234.554,1.307 450.372,1.307 666.191,1.307 c 2.173,0 4.347,0.028 6.52,-0.008 11.79,-0.197 14.681,-5.049 9.335,-15.647 0.904,13.463 0.043,14.353 -13.97,14.353 -218.133,0.001 -436.264,0.001 -654.396,0 -1.738,0 -3.486,0.103 -5.212,-0.036 -8.367,-0.678 -10.398,-3.479 -8.717,-11.737 0.257,-1.259 0.159,-2.591 0.225,-3.89 C -3.301,-10.434 -4.089,-5.213 0,0" /></g><g
                 id="g246"
                 transform="translate(168.7302,156.5615)"><path
                   id="path244"
                   style="fill:#868484;fill-opacity:1;fill-rule:nonzero;stroke:none"
                   d="M 0,0 C 5.521,-4.904 5.888,-11.635 6.479,-18.286 1.689,-13.122 1.363,-6.377 0,0" /></g><g
                 id="g250"
                 transform="translate(162.1638,176.0928)"><path
                   id="path248"
                   style="fill:#868484;fill-opacity:1;fill-rule:nonzero;stroke:none"
                   d="M 0,0 C 0.865,0.003 1.73,0.005 2.595,0.007 2.563,-4.524 5.93,-8.373 5.22,-13.041 1.306,-9.564 1.019,-4.636 0,0" /></g><g
                 id="g254"
                 transform="translate(836.4246,207.416)"><path
                   id="path252"
                   style="fill:#a7a5a6;fill-opacity:1;fill-rule:nonzero;stroke:none"
                   d="m 0,0 c -225.179,-0.003 -450.356,-0.005 -675.534,-0.008 10e-4,0.428 0.008,0.857 0.017,1.284 C -452.601,1.28 -229.686,1.288 -6.77,1.254 -4.487,1.254 -1.936,2.114 0,0" /></g><g
                 id="g258"
                 transform="translate(823.4207,133.0615)"><path
                   id="path256"
                   style="fill:#bdbbbc;fill-opacity:1;fill-rule:nonzero;stroke:none"
                   d="M 0,0 C 0.474,3.021 1.77,5.639 3.858,7.868 3.869,7.42 3.88,6.972 3.892,6.523 2.966,4.127 3.573,0.816 0,0" /></g><g
                 id="g262"
                 transform="translate(832.5095,166.9834)"><path
                   id="path260"
                   style="fill:#939191;fill-opacity:1;fill-rule:nonzero;stroke:none"
                   d="m 0,0 c -0.007,-1.296 -0.014,-2.593 -0.021,-3.889 -4.083,-11.247 -9.206,-22.136 -11.713,-33.927 -0.425,-0.44 -0.849,-0.879 -1.274,-1.318 -0.873,0.002 -1.746,0.003 -2.619,0.005 -0.697,0.865 -0.697,1.726 0.016,2.582 6.188,8.326 7.489,18.695 11.64,27.874 C -2.66,-5.775 -2.676,-2.273 0,0" /></g><g
                 id="g266"
                 transform="translate(816.8982,130.4365)"><path
                   id="path264"
                   style="fill:#838181;fill-opacity:1;fill-rule:nonzero;stroke:none"
                   d="m 0,0 c -0.006,-0.86 -0.011,-1.721 -0.016,-2.581 -0.874,-2.607 -1.748,-5.214 -2.621,-7.82 -0.44,0.002 -0.88,0.004 -1.32,0.005 l 1.33,7.817 c 0.19,1.524 0.354,3.074 2.564,2.632 z" /></g><g
                 id="g270"
                 transform="translate(163.5535,180.0381)"><path
                   id="path268"
                   style="fill:#696767;fill-opacity:1;fill-rule:nonzero;stroke:none"
                   d="m 0,0 c -0.587,5.812 -3.779,11.018 -3.947,16.927 2.772,3.86 6.6,5.419 11.265,5.222 1.517,-0.063 3.04,-0.003 4.56,-0.003 215.868,0 431.735,0 647.603,0 15.331,0 17.22,-2.359 12.043,-16.702 -6.333,-17.549 -12.814,-35.048 -19.213,-52.576 -0.678,-1.854 -1.605,-3.558 -2.914,-5.045 -3.593,-9.745 -7.113,-19.518 -10.803,-29.226 -3.119,-8.206 -5.732,-9.89 -14.653,-9.89 -193.771,-0.004 -387.543,-0.003 -581.314,-10e-4 -9.61,0 -11.682,1.382 -14.614,10.419 C 19.928,-55.957 11.973,-30.997 3.846,-6.094 3.113,-3.851 3.491,-0.616 0,0" /></g><g
                 id="g274"
                 transform="translate(812.9509,127.8613)"><path
                   id="path272"
                   style="fill:#706e6e;fill-opacity:1;fill-rule:nonzero;stroke:none"
                   d="m 0,0 c 7.229,19.703 14.49,39.395 21.651,59.123 0.875,2.411 1.538,4.99 1.739,7.535 0.304,3.884 -1.758,6.126 -5.732,6.329 -1.95,0.1 -3.909,0.035 -5.865,0.035 -214.651,10e-4 -429.303,-0.005 -643.953,0.028 -7.343,0.001 -14.722,0.591 -21.185,-3.946 -0.311,3.12 1.144,4.624 4.136,5.581 3.012,0.962 5.98,0.923 9.001,0.923 217.295,0.011 434.59,0.011 651.884,0.007 15.277,0 17.052,-2.28 11.979,-16.677 C 17.899,42.601 11.716,26.415 5.803,10.133 4.926,7.718 4.513,5.134 3.884,2.628 3.029,1.751 2.175,0.873 1.32,-0.004 0.88,-0.003 0.44,-0.001 0,0" /></g><g
                 id="g278"
                 transform="translate(499.0163,198.2783)"><path
                   id="path276"
                   style="fill:#5e5b5b;fill-opacity:1;fill-rule:nonzero;stroke:none"
                   d="m 0,0 c 108.412,0 216.825,0.001 325.237,-0.001 10.301,0 11.416,-1.273 7.934,-10.794 -9.438,-25.8 -19.53,-51.367 -28.551,-77.309 -8.046,-23.141 -6.64,-18.732 -28.675,-18.748 -188.798,-0.136 -377.595,-0.079 -566.393,-0.078 -11.03,0 -13.044,1.643 -16.242,11.866 -6.269,20.041 -12.74,40.018 -19.111,60.028 -2.627,8.25 -5.338,16.477 -7.777,24.783 -2.362,8.044 -0.618,10.249 7.69,10.25 C -217.259,0.002 -108.629,0 0,0" /></g><g
                 id="g282"
                 transform="translate(499.3523,194.3643)"><path
                   id="path280"
                   style="fill:#5a5758;fill-opacity:1;fill-rule:nonzero;stroke:none"
                   d="m 0,0 c 106.681,0 213.361,0.001 320.042,-0.001 10.11,0 10.72,-0.708 7.211,-10.434 -9.771,-27.082 -19.783,-54.077 -29.483,-81.183 -2.249,-6.285 -6.387,-7.593 -12.548,-7.588 -168.821,0.13 -337.641,0.103 -506.461,0.103 -23.683,0 -47.366,0.098 -71.048,-0.073 -5.402,-0.039 -8.434,2.064 -10.041,7.164 -9.044,28.7 -18.147,57.382 -27.402,86.015 -1.514,4.683 0.301,5.996 4.473,5.994 1.738,-0.001 3.476,0.003 5.214,0.003 z" /></g></g></g></g></g></g><g
       id="g288"><g
         id="g290"><g
           id="g296"><g
             id="g298"><path
               id="path306"
               style="fill:url(#linearGradient304);stroke:none"
               d="M 138.773,218.867 179.258,92.365 h 613.636 l 46.422,126.502 z" /></g></g></g></g><g
       id="g308"><g
         clip-path="url(#clipPath314)"
         id="g310"><path
           id="path316"
           style="fill:#ffffff;fill-opacity:1;fill-rule:nonzero;stroke:none"
           d="m 354.107,92.365 h -6.919 v 126.501 h 6.919 z" /><g
           transform="translate(453.5359,138.3662)"
           id="g318"><path
             id="path320"
             style="fill:#ffffff;fill-opacity:1;fill-rule:nonzero;stroke:none"
             d="m 0,0 h -12.459 c -1.849,-8.842 -9.083,-13.264 -21.864,-13.264 v 9.084 c 7.395,0 11.093,3.536 11.093,10.611 v 29.983 h 11.334 V 10.771 H 0 Z" /></g><path
           id="path322"
           style="fill:#ffffff;fill-opacity:1;fill-rule:nonzero;stroke:none"
           d="m 468.327,138.366 h -17.202 v 10.771 h 17.202 z" /><path
           id="path324"
           style="fill:#ffffff;fill-opacity:1;fill-rule:nonzero;stroke:none"
           d="m 484.243,138.366 h -17.202 v 10.771 h 17.202 z" /><path
           id="path326"
           style="fill:#ffffff;fill-opacity:1;fill-rule:nonzero;stroke:none"
           d="m 500.16,138.366 h -17.202 v 10.771 h 17.202 z" /><path
           id="path328"
           style="fill:#ffffff;fill-opacity:1;fill-rule:nonzero;stroke:none"
           d="m 516.076,138.366 h -17.202 v 10.771 h 17.202 z" /><path
           id="path330"
           style="fill:#ffffff;fill-opacity:1;fill-rule:nonzero;stroke:none"
           d="M 531.992,138.366 H 514.79 v 10.771 h 17.202 z" /><path
           id="path332"
           style="fill:#ffffff;fill-opacity:1;fill-rule:nonzero;stroke:none"
           d="m 547.908,138.366 h -17.202 v 10.771 h 17.202 z" /><path
           id="path334"
           style="fill:#ffffff;fill-opacity:1;fill-rule:nonzero;stroke:none"
           d="m 563.825,138.366 h -17.202 v 10.771 h 17.202 z" /><path
           id="path336"
           style="fill:#ffffff;fill-opacity:1;fill-rule:nonzero;stroke:none"
           d="m 579.741,138.366 h -17.202 v 10.771 h 17.202 z" /><path
           id="path338"
           style="fill:#ffffff;fill-opacity:1;fill-rule:nonzero;stroke:none"
           d="m 595.657,138.366 h -17.202 v 10.771 h 17.202 z" /><path
           id="path340"
           style="fill:#ffffff;fill-opacity:1;fill-rule:nonzero;stroke:none"
           d="m 611.573,138.366 h -17.202 v 10.771 h 17.202 z" /><path
           id="path342"
           style="fill:#ffffff;fill-opacity:1;fill-rule:nonzero;stroke:none"
           d="m 627.489,138.366 h -17.202 v 10.771 h 17.202 z" /><path
           id="path344"
           style="fill:#ffffff;fill-opacity:1;fill-rule:nonzero;stroke:none"
           d="m 643.406,138.366 h -17.202 v 10.771 h 17.202 z" /><path
           id="path346"
           style="fill:#ffffff;fill-opacity:1;fill-rule:nonzero;stroke:none"
           d="M 659.322,138.366 H 642.12 v 10.771 h 17.202 z" /><path
           id="path348"
           style="fill:#ffffff;fill-opacity:1;fill-rule:nonzero;stroke:none"
           d="m 675.238,138.366 h -17.202 v 10.771 h 17.202 z" /><path
           id="path350"
           style="fill:#ffffff;fill-opacity:1;fill-rule:nonzero;stroke:none"
           d="m 691.154,138.366 h -17.202 v 10.771 h 17.202 z" /><g
           transform="translate(713.2605,174.7803)"
           id="g352"><path
             id="path354"
             style="fill:#ffffff;fill-opacity:1;fill-rule:nonzero;stroke:none"
             d="m 0,0 h -20.899 v 5.948 h 4.582 c -0.403,1.125 -0.563,2.17 -0.563,3.135 0,5.225 3.777,9.324 8.922,9.324 3.617,0 6.271,-1.848 7.878,-5.466 l -5.386,-2.492 c -0.482,1.608 -1.366,2.412 -2.652,2.412 -1.769,0 -2.653,-1.206 -2.653,-3.537 0,-1.768 0.562,-2.893 1.688,-3.296 l 9.083,0 z m 0,-20.9 c 0,-4.26 -1.206,-7.797 -3.537,-10.611 -2.652,-3.296 -6.35,-4.903 -11.093,-4.903 h -9.244 v 10.771 h 6.913 c 2.251,0 3.858,0.804 4.743,2.493 0.643,1.205 0.964,2.973 0.964,5.385 V -4.422 H 0 Z" /></g><path
           id="path356"
           style="fill:#ffffff;fill-opacity:1;fill-rule:nonzero;stroke:none"
           d="M 732.714,138.366 H 721.46 v 51.848 h 11.254 z" /><path
           id="path358"
           style="fill:#ffffff;fill-opacity:1;fill-rule:nonzero;stroke:none"
           d="m 762.134,180.889 h -9.968 v 9.244 h 9.968 z m 0.803,-35.127 c 0,-7.396 -1.848,-12.701 -5.627,-15.996 -3.456,-3.136 -9.083,-4.663 -16.8,-4.663 v 9.084 c 7.396,0 11.093,3.536 11.093,10.61 v 29.983 h 11.334 z" /></g></g></g></svg>