<?xml version="1.0" encoding="UTF-8" standalone="no"?>
<svg
   xmlns:dc="http://purl.org/dc/elements/1.1/"
   xmlns:cc="http://creativecommons.org/ns#"
   xmlns:rdf="http://www.w3.org/1999/02/22-rdf-syntax-ns#"
   xmlns:svg="http://www.w3.org/2000/svg"
   xmlns="http://www.w3.org/2000/svg"
   viewBox="0 0 1300.9041 414.55066"
   height="414.55066"
   width="1300.9041"
   xml:space="preserve"
   id="svg2"
   version="1.1"><metadata
     id="metadata8"><rdf:RDF><cc:Work
         rdf:about=""><dc:format>image/svg+xml</dc:format><dc:type
           rdf:resource="http://purl.org/dc/dcmitype/StillImage" /></cc:Work></rdf:RDF></metadata><defs
     id="defs6"><clipPath
       id="clipPath18"
       clipPathUnits="userSpaceOnUse"><path
         id="path16"
         d="M 0,310.913 H 975.678 V 0 H 0 Z" /></clipPath><clipPath
       id="clipPath34"
       clipPathUnits="userSpaceOnUse"><path
         id="path32"
         d="M 0,201.215 H 978.089 V 130.517 H 0 Z" /></clipPath><radialGradient
       id="radialGradient46"
       spreadMethod="pad"
       gradientTransform="matrix(543.50946,0,0,-23.566816,487.59396,165.8663)"
       gradientUnits="userSpaceOnUse"
       r="1"
       cy="0"
       cx="0"
       fy="0"
       fx="0"><stop
         id="stop40"
         offset="0"
         style="stop-opacity:1;stop-color:#001d45" /><stop
         id="stop42"
         offset="0.62858687"
         style="stop-opacity:1;stop-color:#ffffff" /><stop
         id="stop44"
         offset="1"
         style="stop-opacity:1;stop-color:#ffffff" /></radialGradient><clipPath
       id="clipPath70"
       clipPathUnits="userSpaceOnUse"><path
         id="path68"
         d="M 132.022,225.245 H 870.744 V 58.8701 H 132.022 Z" /></clipPath><linearGradient
       id="linearGradient312"
       spreadMethod="pad"
       gradientTransform="matrix(0,126.50067,126.50067,0,489.04443,88.779922)"
       gradientUnits="userSpaceOnUse"
       y2="0"
       x2="1"
       y1="0"
       x1="0"><stop
         id="stop308"
         offset="0"
         style="stop-opacity:1;stop-color:#76b82a" /><stop
         id="stop310"
         offset="1"
         style="stop-opacity:1;stop-color:#007632" /></linearGradient><clipPath
       id="clipPath322"
       clipPathUnits="userSpaceOnUse"><path
         id="path320"
         d="M 0,310.913 H 975.678 V 0 H 0 Z" /></clipPath><linearGradient
       id="linearGradient376"
       spreadMethod="pad"
       gradientTransform="matrix(0,175.14622,175.14622,0,249.93272,98.414063)"
       gradientUnits="userSpaceOnUse"
       y2="0"
       x2="1"
       y1="0"
       x1="0"><stop
         id="stop370"
         offset="0"
         style="stop-opacity:1;stop-color:#007632" /><stop
         id="stop372"
         offset="0.98324"
         style="stop-opacity:1;stop-color:#76b82a" /><stop
         id="stop374"
         offset="1"
         style="stop-opacity:1;stop-color:#76b82a" /></linearGradient><clipPath
       id="clipPath386"
       clipPathUnits="userSpaceOnUse"><path
         id="path384"
         d="M 0,310.913 H 975.678 V 0 H 0 Z" /></clipPath><clipPath
       id="clipPath554"
       clipPathUnits="userSpaceOnUse"><path
         id="path552"
         d="m 252.176,251.61 h 15.417 v -9.772 h -15.417 z" /></clipPath><clipPath
       id="clipPath570"
       clipPathUnits="userSpaceOnUse"><path
         id="path568"
         d="m 232.199,251.755 h 15.128 v -9.917 h -15.128 z" /></clipPath></defs><g
     transform="matrix(1.3333333,0,0,-1.3333333,0,414.55067)"
     id="g10"><g
       id="g12"><g
         clip-path="url(#clipPath18)"
         id="g14"><g
           transform="translate(116.8952,157.9596)"
           id="g20"><path
             id="path22"
             style="fill:#005f27;fill-opacity:1;fill-rule:nonzero;stroke:none"
             d="M 0,0 C 0,0 0.988,88.946 43.488,45.462 85.989,1.977 50.407,5.93 50.407,5.93 Z" /></g><g
           transform="translate(859.282,157.9596)"
           id="g24"><path
             id="path26"
             style="fill:#005f27;fill-opacity:1;fill-rule:nonzero;stroke:none"
             d="M 0,0 C 0,0 -0.988,88.946 -43.489,45.462 -85.989,1.977 -50.408,5.93 -50.408,5.93 Z" /></g><g
           id="g28"><g
             id="g30" /><g
             id="g60"><g
               id="g58"
               clip-path="url(#clipPath34)"><g
                 id="g56"><g
                   id="g54"><g
                     id="g52"><g
                       id="g50"><path
                         id="path48"
                         style="fill:none;stroke:none"
                         d="M 487.594,201.215 C 273.727,201.215 88.717,193.181 0,181.502 v -31.271 c 88.717,-11.681 273.727,-19.714 487.594,-19.714 216.226,0 402.956,8.212 490.495,20.102 v 30.495 c -87.539,11.89 -274.269,20.101 -490.495,20.101" /></g></g></g></g></g></g></g><path
           id="path62"
           style="fill:none;fill-opacity:1;fill-rule:evenodd;stroke:none"
           d="M 978.089,21.577 H 0 v 142.602 h 978.089 z" /><g
           id="g64"><g
             id="g66" /><g
             id="g294"><g
               style="opacity:0.60000598"
               id="g292"
               clip-path="url(#clipPath70)"><g
                 id="g74"
                 transform="translate(870.3318,208.9664)"><path
                   id="path72"
                   style="fill:#fefefe;fill-opacity:1;fill-rule:nonzero;stroke:none"
                   d="m 0,0 c -2.811,6.496 -6.233,12.482 -13.041,15.647 4.251,0 10.469,1.672 12.25,-0.424 C 1.404,12.639 -0.093,6.916 -0.002,2.55 0.016,1.7 0,0.85 0,0" /></g><g
                 id="g78"
                 transform="translate(133.5046,203.7506)"><path
                   id="path76"
                   style="fill:#fdfdfd;fill-opacity:1;fill-rule:nonzero;stroke:none"
                   d="m 0,0 c 0.79,11.242 9.199,18.736 21.979,19.538 1.732,0.108 3.476,0.022 5.214,0.022 225.73,0 451.46,-0.006 677.19,0.044 4.158,0 8.189,-0.401 12.201,-1.412 13.353,-3.363 18.671,-14.661 15.33,-26.396 -7.286,-25.594 -16.879,-50.4 -27.252,-74.928 -5.641,-13.338 -10.05,-27.199 -14.957,-40.846 -3.785,-10.527 -10.378,-17.816 -21.996,-19.46 -2.258,-1.196 -4.695,-0.603 -7.04,-0.604 -198.315,-0.031 -396.631,-0.031 -594.946,0 -2.344,0 -4.78,-0.591 -7.037,0.604 -13.44,0.816 -19.631,10.019 -23.299,21.189 C 23.588,-86.316 12.158,-50.263 0.675,-14.227 0.037,-12.224 0.207,-9.964 0,-7.824 -0.992,-5.216 -0.992,-2.608 0,0" /></g><g
                 id="g82"
                 transform="translate(192.1902,60.3121)"><path
                   id="path80"
                   style="fill:#fdfdfd;fill-opacity:1;fill-rule:nonzero;stroke:none"
                   d="m 0,0 h 609.023 c -1.924,-2.135 -4.477,-1.268 -6.757,-1.268 -198.503,-0.04 -397.005,-0.04 -595.507,0 C 4.479,-1.268 1.925,-2.136 0,0" /></g><g
                 id="g86"
                 transform="translate(133.5046,203.7506)"><path
                   id="path84"
                   style="fill:#fdfdfd;fill-opacity:1;fill-rule:nonzero;stroke:none"
                   d="M 0,0 V -7.824 C -1.977,-5.216 -1.977,-2.608 0,0" /></g><g
                 id="g90"
                 transform="translate(825.9919,104.6481)"><path
                   id="path88"
                   style="fill:#f8f8f8;fill-opacity:1;fill-rule:nonzero;stroke:none"
                   d="m 0,0 c 0.173,-0.847 0.785,-1.977 0.451,-2.498 -4.656,-7.259 -2.675,-17.152 -9.428,-23.569 -2.641,-2.509 -2.286,-6.577 -5.465,-9.274 -3.313,-2.81 -7.704,-4.519 -10.543,-4.007 -7.227,1.306 -13.282,-2.53 -20.152,-2.523 -188.435,0.18 -376.871,0.169 -565.306,0.073 -9.721,-0.005 -18.987,2.991 -28.651,3.439 -2.398,0.11 -6.171,2.819 -7.599,6.065 -5.631,12.789 -10.623,25.755 -13.767,39.482 -1.971,8.602 -6.539,16.614 -8.46,25.22 -3.077,13.785 -9.922,26.306 -12.493,40.24 -0.92,4.985 -3.11,9.951 -5.681,14.367 -4.661,8.006 2.057,22.727 11.299,26.104 0.4,0.148 0.929,0.382 1.253,0.241 7.813,-3.4 15.049,1.528 22.703,1.522 216.907,-0.165 433.815,-0.171 650.723,0.07 5.842,0.007 10.808,-3.997 16.303,-2.604 4.47,1.132 7.896,0.034 11.683,-1.814 7.884,-3.847 10.776,-12.485 7.443,-20.813 -2.484,-6.21 -6.261,-12.065 -6.052,-19.231 0.08,-2.749 -1.823,-4.285 -4.778,-3.995 -1.867,2.353 -0.421,4.381 0.431,6.634 2.827,7.483 6.086,14.871 5.54,23.198 -0.442,6.755 -3.257,10.007 -9.923,11.654 -3.43,0.848 -6.848,1.027 -10.328,1.027 -224.055,0 -448.109,0 -672.163,-0.004 -5.01,0 -10.067,0.006 -14.298,-3.211 -5.619,-4.273 -7.433,-12.526 -4.746,-20.694 11.316,-34.394 22.291,-68.897 33.15,-103.437 3.726,-11.848 10.393,-17.078 22.744,-17.602 1.954,-0.083 3.911,-0.043 5.867,-0.043 194.064,-0.001 388.129,-0.001 582.193,-0.002 4.126,0 8.184,0.312 12.291,1.009 6.755,1.146 10.763,5.117 13.432,11.003 2.868,6.326 5.411,12.777 7.619,19.358 C -3.274,-2.947 -3.075,0 0,0" /></g><g
                 id="g94"
                 transform="translate(823.3835,100.735)"><path
                   id="path92"
                   style="fill:#f2f2f2;fill-opacity:1;fill-rule:nonzero;stroke:none"
                   d="m 0,0 c -2.59,-6.17 -4.781,-12.521 -7.09,-18.771 -3.931,-10.639 -11.565,-14.419 -21.828,-15.11 -1.73,-0.117 -3.476,-0.022 -5.214,-0.022 -195.108,0 -390.217,0 -585.326,10e-4 -18.073,0 -23.66,4.728 -29.373,21.912 -8.868,26.677 -16.922,53.614 -25.847,80.277 -3.09,9.231 -6.823,18.468 -7.674,28.652 -0.888,10.631 8.555,17.645 17.091,17.801 1.521,0.029 3.042,0.011 4.563,0.011 224.44,0 448.88,0 673.32,0.003 5.41,0 10.995,0.055 15.617,-3.002 7.239,-4.786 6.573,-12.466 5.158,-19.459 -1.261,-6.241 -2.646,-12.695 -6.535,-18.149 -0.675,-0.948 -0.534,-2.476 -0.77,-3.736 l -0.009,-2.601 c -1.058,-0.845 -2.072,-0.734 -3.059,0.134 -1.562,3.189 0.14,6.072 0.832,9.056 1.981,6.608 5.441,12.796 5.568,19.919 0.145,8.213 -2.443,11.476 -10.452,13.052 -2.791,0.549 -5.633,0.331 -8.453,0.331 -222.936,0.011 -445.873,0.01 -668.809,0.008 -1.522,0 -3.043,0.019 -4.564,-0.027 -11.308,-0.343 -16.604,-7.023 -14.174,-18.129 1.809,-8.273 4.655,-16.261 7.303,-24.287 9.245,-28.015 17.359,-56.398 27.43,-84.141 3.316,-9.133 8.842,-12.936 18.7,-13.163 1.304,-0.031 2.608,-0.019 3.911,-0.019 195.341,-0.001 390.682,0.001 586.023,-0.017 5.024,0 10.012,-0.061 14.452,2.77 4.358,2.813 7.114,6.906 9.105,11.597 2.689,4.515 3.851,9.674 6.063,14.376 0.883,1.875 0.84,5.037 4.34,4.598 C 0.707,2.536 0.941,1.223 0,0" /></g><g
                 id="g98"
                 transform="translate(823.3835,100.735)"><path
                   id="path96"
                   style="fill:#f4f4f4;fill-opacity:1;fill-rule:nonzero;stroke:none"
                   d="m 0,0 v 3.915 c -1.422,1.535 -0.821,3.266 -0.312,4.868 3.455,10.856 7.861,21.368 11.679,32.093 0.442,1.241 1.207,2.276 2.544,2.73 0.716,0.102 1.375,-0.049 1.977,-0.447 1.098,-4.07 -0.927,-7.301 -2.843,-10.56 C 13.043,32.164 13.041,31.73 13.04,31.297 10.914,28.128 11.596,23.906 9.129,20.865 8.079,20.304 7.852,19.33 7.825,18.257 6.023,14.511 6.496,10.007 3.913,6.521 2.862,5.96 2.636,4.986 2.608,3.913 1.739,2.608 0.87,1.304 0,0" /></g><g
                 id="g102"
                 transform="translate(845.5515,156.8072)"><path
                   id="path100"
                   style="fill:#f8f8f8;fill-opacity:1;fill-rule:nonzero;stroke:none"
                   d="m 0,0 c -1.61,-3.542 2.47,-9.921 -5.204,-10.439 -2.169,2.664 -0.602,5.077 0.492,7.527 C -3.411,-1.513 -2.492,0.523 0,0" /></g><g
                 id="g106"
                 transform="translate(846.866,168.5387)"><path
                   id="path104"
                   style="fill:#f8f8f8;fill-opacity:1;fill-rule:nonzero;stroke:none"
                   d="m 0,0 c 0.867,0.001 1.733,0.002 2.601,0.003 0.563,-4.177 0.21,-8.011 -3.91,-10.434 -0.816,0.648 -1.174,1.536 -1.343,2.528 -0.172,1.303 -0.022,2.582 0.318,3.845 0.507,1.505 0.94,3.06 2.334,4.058" /></g><g
                 id="g110"
                 transform="translate(827.2966,107.2565)"><path
                   id="path108"
                   style="fill:#f8f8f8;fill-opacity:1;fill-rule:nonzero;stroke:none"
                   d="M 0,0 C -0.327,4.455 1.838,8.08 3.912,11.735 2.458,7.873 6.152,2.296 0,0" /></g><g
                 id="g114"
                 transform="translate(832.5125,121.6002)"><path
                   id="path112"
                   style="fill:#f8f8f8;fill-opacity:1;fill-rule:nonzero;stroke:none"
                   d="M 0,0 C -0.286,4.073 1.17,7.493 3.911,10.432 2.456,7.011 5.875,1.764 0,0" /></g><g
                 id="g118"
                 transform="translate(841.6511,154.1949)"><path
                   id="path116"
                   style="fill:#f2f2f2;fill-opacity:1;fill-rule:nonzero;stroke:none"
                   d="m 0,0 c -0.435,-2.609 -0.869,-5.218 -1.305,-7.827 l -0.008,-2.602 c -0.433,-0.643 -0.867,-0.614 -1.301,-0.002 -0.438,10e-4 -0.874,0.003 -1.311,0.004 -2.221,4.412 -0.358,7.697 2.924,10.59 C -0.668,0.109 -0.334,0.055 0,0" /></g><g
                 id="g122"
                 transform="translate(839.0369,143.7643)"><path
                   id="path120"
                   style="fill:#f8f8f8;fill-opacity:1;fill-rule:nonzero;stroke:none"
                   d="M 0,0 C 0.434,0.001 0.867,0.002 1.301,0.002 1.863,-4.175 1.512,-8.009 -2.608,-10.431 -1.739,-6.954 -0.87,-3.477 0,0" /></g><g
                 id="g126"
                 transform="translate(845.5505,160.7193)"><path
                   id="path124"
                   style="fill:#f4f4f4;fill-opacity:1;fill-rule:nonzero;stroke:none"
                   d="M 0,0 C 0.002,-0.87 0.004,-1.741 0.007,-2.611 0.004,-3.045 0.003,-3.479 0.001,-3.912 -1.351,-4.706 -1.88,-6.728 -3.899,-6.524 l -0.02,0.006 C -5.287,-5.055 -4.96,-3.578 -3.965,-2.09 -2.844,-1.021 -2.008,0.607 0,0" /></g><g
                 id="g130"
                 transform="translate(806.4568,74.6451)"><path
                   id="path128"
                   style="fill:#e4e4e4;fill-opacity:1;fill-rule:nonzero;stroke:none"
                   d="m 0,0 c -1.604,-4.699 -6.048,-4.252 -9.636,-5.093 -2.062,-0.483 -4.326,-0.112 -6.499,-0.112 -195.774,-0.001 -391.55,-0.001 -587.325,0 -14.583,0 -19.269,2.967 -24.266,16.463 -10.067,27.19 -17.957,55.099 -26.947,82.647 -2.546,7.801 -5.1,15.617 -7.154,23.556 -3.252,12.568 3.363,20.764 16.461,20.764 225.544,0.01 451.087,0.012 676.63,-0.002 14.496,-0.002 20.104,-7.664 16.034,-21.549 -1.504,-5.128 -3.116,-10.197 -5.586,-14.956 -0.623,-0.459 -1.191,-0.4 -1.707,0.177 -1.03,2.279 0.121,4.491 0.185,6.737 1.09,6.306 5.043,12.188 2.799,18.98 -0.236,2.059 -1.127,3.631 -3.237,4.293 -1.09,0.491 -2.158,1.012 -3.258,1.481 -1.979,0.723 -4.028,0.382 -6.06,0.429 -222.24,-0.045 -444.463,-0.016 -666.687,-0.026 -1.087,0 -2.175,-0.048 -3.259,0.007 -18.404,0.925 -21.614,-6.308 -16.574,-22.298 7.957,-25.244 15.967,-50.475 24.195,-75.623 0.835,-2.082 1.529,-4.24 2.951,-6.049 1.315,-2.816 2.107,-5.768 2.294,-8.883 0.262,-1.513 0.785,-2.952 1.284,-4.381 5.02,-14.385 9.13,-17.314 24.328,-17.315 194.262,-0.005 388.523,-0.003 582.785,-0.015 4.134,0 8.253,-0.01 12.271,1.127 C -3.979,0.401 -1.937,1.047 0,0" /></g><g
                 id="g134"
                 transform="translate(846.8445,176.3727)"><path
                   id="path132"
                   style="fill:#e7e6e6;fill-opacity:1;fill-rule:nonzero;stroke:none"
                   d="M 0,0 1.324,-0.009 C 0.89,-2.617 0.456,-5.226 0.021,-7.834 c -0.065,-1.428 0.217,-2.972 -1.309,-3.91 -1.19,-2.044 -1.523,-4.434 -2.624,-6.513 -1.529,-0.94 -1.251,-2.481 -1.301,-3.914 -2.769,-2.929 -3.513,-6.615 -3.905,-10.433 -5.378,-12.821 -10.401,-25.772 -14.343,-39.119 -4.32,-5.926 -4.142,-13.95 -9.125,-19.567 -0.859,0.717 -1.239,1.674 -1.4,2.745 2.031,11.356 7.117,21.711 10.917,32.476 5.613,15.901 11.566,31.688 17.478,47.485 C -4.41,-5.429 -4.545,-1.091 0,0" /></g><g
                 id="g138"
                 transform="translate(814.2449,87.7037)"><path
                   id="path136"
                   style="fill:#e2e1e1;fill-opacity:1;fill-rule:nonzero;stroke:none"
                   d="m 0,0 c 0.005,-0.874 0.009,-1.747 0.014,-2.621 -1.466,-4.327 -2.734,-8.804 -7.803,-10.438 -1.318,-0.427 -2.637,-0.855 -3.955,-1.282 0.182,4.729 5.712,5.695 6.844,9.756 C -3.32,-3.003 -3.209,0.164 0,0" /></g><g
                 id="g142"
                 transform="translate(842.9324,158.1158)"><path
                   id="path140"
                   style="fill:#f2f2f2;fill-opacity:1;fill-rule:nonzero;stroke:none"
                   d="M 0,0 C -0.052,2.544 0.541,4.828 2.624,6.513 2.622,5.21 2.62,3.906 2.618,2.604 1.745,1.735 0.873,0.867 0,0" /></g><g
                 id="g146"
                 transform="translate(810.3425,82.4781)"><path
                   id="path144"
                   style="fill:#d3d2d2;fill-opacity:1;fill-rule:nonzero;stroke:none"
                   d="m 0,0 c -0.996,-4.43 -5.402,-5.927 -7.842,-9.116 -6.158,-1.647 -12.454,-1.317 -18.729,-1.317 -192.53,0.003 -385.059,0.098 -577.587,-0.149 -18.772,-0.024 -24.09,6.004 -28.325,24.935 3.759,-0.217 4.231,-3.451 5.028,-5.968 3.476,-10.984 10.775,-14.566 22.203,-14.551 194.442,0.256 388.886,0.219 583.329,0.057 8.167,-0.007 14.995,1.297 19.707,8.466 C 0.204,3.155 0.826,2.258 0,0" /></g><g
                 id="g150"
                 transform="translate(809.1023,85.0885)"><path
                   id="path148"
                   style="fill:#c3c2c2;fill-opacity:1;fill-rule:nonzero;stroke:none"
                   d="m 0,0 c -2.339,-7.457 -7.625,-10.468 -15.208,-10.467 -198.117,0.029 -396.233,0.02 -594.351,0.034 -8.445,10e-4 -13.313,3.744 -16.745,11.728 -1.512,3.519 -1.977,7.599 -4.939,10.447 -0.463,2.585 -0.927,5.17 -1.39,7.754 -1.795,2.06 -2.08,4.795 -3.203,7.158 -7.871,22.837 -14.565,46.041 -21.741,69.094 -0.325,1.046 -0.655,2.059 -0.18,3.136 0.479,0.553 1.085,0.827 1.817,0.825 3.057,-0.898 3.466,-3.732 4.126,-6.126 3.963,-14.4 9.548,-28.284 13.5,-42.688 0.796,-2.908 1.667,-5.838 3.457,-8.366 3.442,-6.897 5.111,-14.342 6.756,-21.806 1.042,-5.594 3.242,-10.8 5.116,-16.121 2.951,-8.384 9.259,-11.559 17.58,-11.843 2.389,-0.082 4.781,-0.047 7.172,-0.047 190.613,-10e-4 381.226,-10e-4 571.84,-0.003 4.776,0 9.572,-0.245 14.181,1.326 1.714,0.452 3.127,1.373 4.171,2.831 3.019,2.7 3.86,7.358 8.058,9.013 C 0.71,5.838 1.284,5.559 1.747,5.043 2.725,2.819 2.229,1.109 0,0" /></g><g
                 id="g154"
                 transform="translate(151.7673,184.191)"><path
                   id="path152"
                   style="fill:#d6d5d5;fill-opacity:1;fill-rule:nonzero;stroke:none"
                   d="m 0,0 c 7.391,-24.337 14.781,-48.675 22.172,-73.013 0.744,-0.876 0.727,-1.749 -0.007,-2.62 -4.905,9.946 -7.174,20.786 -10.554,31.246 -5.391,16.689 -10.945,33.338 -15.774,50.193 -3.995,13.947 1.15,20.273 15.426,20.273 225.335,0.004 450.669,-0.001 676.003,-0.003 1.197,-1.014 5.046,-1.248 1.111,-3.781 -5.446,-1.38 -10.721,0.753 -16.148,0.75 C 455.968,22.914 239.707,22.924 23.445,22.987 18.406,22.989 13.507,22.227 8.565,21.603 1.448,20.703 -0.624,18.046 -0.809,10.889 -0.904,7.196 1.476,3.744 0,0" /></g><g
                 id="g158"
                 transform="translate(809.1023,85.0885)"><path
                   id="path156"
                   style="fill:#d9d8d8;fill-opacity:1;fill-rule:nonzero;stroke:none"
                   d="m 0,0 c 0.83,1.637 1.479,3.316 1.271,5.207 4.994,10.84 8.646,22.188 12.616,33.416 4.76,12.266 9.325,24.603 13.572,37.056 2.125,5.824 3.96,11.755 6.331,17.488 0.8,1.937 1.142,4.197 3.412,5.174 0.709,0.129 1.328,-0.052 1.858,-0.542 C 38.621,95.627 38.182,93.456 37.742,91.284 30.217,74.994 24.975,57.831 18.667,41.077 13.881,28.364 8.661,15.782 5.143,2.615 3.842,0.874 2.541,-0.868 1.24,-2.61 1.218,-1.554 1.008,-0.587 0,0" /></g><g
                 id="g162"
                 transform="translate(848.1619,182.8873)"><path
                   id="path160"
                   style="fill:#d6d5d5;fill-opacity:1;fill-rule:nonzero;stroke:none"
                   d="m 0,0 c -0.439,0.001 -0.879,0.003 -1.318,0.005 -1.387,1.43 -1.277,3.152 -0.669,4.78 2.75,7.365 2.287,14.062 -3.811,19.695 0.138,1.116 0.479,1.993 1.891,1.606 0.867,-0.438 1.735,-0.875 2.603,-1.313 1.612,-0.996 2.914,-2.3 3.912,-3.91 C 5.763,13.406 1.406,6.887 0,0" /></g><g
                 id="g166"
                 transform="translate(173.9324,108.5582)"><path
                   id="path164"
                   style="fill:#d2d1d2;fill-opacity:1;fill-rule:nonzero;stroke:none"
                   d="M 0,0 C 0.002,0.873 0.005,1.746 0.007,2.62 1.747,0.767 2.114,-1.613 2.538,-3.973 -0.018,-3.74 -0.022,-1.879 0,0" /></g><g
                 id="g170"
                 transform="translate(844.2546,208.9733)"><path
                   id="path168"
                   style="fill:#dbdada;fill-opacity:1;fill-rule:nonzero;stroke:none"
                   d="m 0,0 c -0.437,-0.432 -0.873,-0.863 -1.309,-1.296 -0.44,-0.41 -0.87,-0.4 -1.292,0.029 C -3.475,-0.413 -4.348,0.44 -5.222,1.294 -3.417,1.123 -1.378,1.895 0,0" /></g><g
                 id="g174"
                 transform="translate(850.7703,203.7506)"><path
                   id="path172"
                   style="fill:#d9d8d8;fill-opacity:1;fill-rule:nonzero;stroke:none"
                   d="M 0,0 C -1.758,0.85 -3.061,2.154 -3.912,3.91 -1.42,3.795 -0.118,2.489 0,0" /></g><g
                 id="g178"
                 transform="translate(841.6541,207.7066)"><path
                   id="path176"
                   style="fill:#c1c0c0;fill-opacity:1;fill-rule:nonzero;stroke:none"
                   d="m 0,0 c 0.431,-0.028 0.861,-0.038 1.292,-0.029 7.427,-6.011 8.26,-8.992 5.35,-18.52 -0.624,-2.046 -0.976,-4.175 -1.453,-6.265 -3.032,-7.395 -6.064,-14.79 -9.096,-22.183 -0.636,-0.451 -1.22,-0.392 -1.753,0.175 -1.589,3.161 0.103,5.928 1.171,8.703 2.571,6.687 5.191,13.381 7.222,20.228 2.028,6.839 1.145,13.046 -5.846,13.943 -0.738,0.24 -1.462,0.448 -2.22,0.602 -2.622,0.222 -5.23,0.15 -7.835,0.15 -218.472,0.001 -436.942,0.004 -655.414,-0.009 -3.469,0 -6.95,0.222 -10.388,-0.329 -8.986,-2.213 -10.15,-3.9 -8.851,-13.352 0.317,-2.312 1.152,-4.585 -0.724,-6.616 -0.447,-0.005 -0.894,-0.009 -1.342,-0.014 -2.128,4.157 -2.638,8.567 -2.724,13.214 -0.111,6.01 3.411,8.915 8.341,9.99 5.025,1.095 10.291,1.489 15.453,1.49 217.559,0.069 435.118,0.068 652.677,0.008 C -10.76,1.184 -5.38,0.412 0,0" /></g><g
                 id="g182"
                 transform="translate(808.9402,90.3356)"><path
                   id="path180"
                   style="fill:#929090;fill-opacity:1;fill-rule:nonzero;stroke:none"
                   d="m 0,0 c -2.15,-3.043 -4.3,-6.087 -6.45,-9.13 -2.635,-1.67 -5.452,-2.913 -8.497,-3.651 -2.377,-0.437 -4.772,-0.279 -7.156,-0.28 -193.459,-0.007 -386.918,-0.009 -580.376,-0.002 -13.306,0 -17.112,2.623 -21.925,14.955 -0.165,1.743 -0.285,3.475 1.205,4.801 3.281,-0.382 3.905,-3.15 4.751,-5.541 2.205,-6.238 6.724,-8.692 13.08,-8.47 2.169,0.076 4.345,-0.002 6.517,-0.002 191.414,0 382.829,0 574.243,0.001 2.39,0 4.78,0.014 7.17,0.025 5.292,0.023 9.02,2.073 11.09,7.307 1.244,3.144 1.896,6.774 4.891,9.031 C 0.141,9.813 0.677,8.654 1.251,7.558 1.782,6.051 1.801,4.501 1.597,2.936 1.418,1.769 0.799,0.836 0,0" /></g><g
                 id="g186"
                 transform="translate(185.6697,92.9117)"><path
                   id="path184"
                   style="fill:#aba9aa;fill-opacity:1;fill-rule:nonzero;stroke:none"
                   d="m 0,0 c 3.714,-11.313 7.751,-14.336 19.311,-14.336 196.992,0 393.984,0.007 590.976,0.012 1.337,0.808 2.668,1.017 3.99,-0.032 -3.636,-2.194 -7.655,-2.594 -11.786,-2.594 -194.198,0.009 -388.396,0.005 -582.595,0.013 C 7.1,-16.936 2.123,-13.731 -2.13,-1.859 -4.007,3.38 -6.699,8.506 -6.52,14.344 -2.561,14.572 -2.511,11.221 -1.489,8.802 -0.305,5.994 -1.499,2.767 0,0" /></g><g
                 id="g190"
                 transform="translate(153.1091,184.2047)"><path
                   id="path188"
                   style="fill:#aba9aa;fill-opacity:1;fill-rule:nonzero;stroke:none"
                   d="m 0,0 c -0.456,3.796 -1.203,7.585 -1.305,11.391 -0.179,6.758 2.032,8.888 9.06,9.472 2.265,1.169 4.7,0.59 7.047,0.59 221.361,0.031 442.723,0.031 664.085,0 2.345,0 4.782,0.587 7.043,-0.599 l -0.002,0.003 c 0.34,-0.932 0.085,-1.653 -0.763,-2.168 -3.969,-1.66 -8.15,-0.956 -12.236,-0.957 C 454.427,17.695 235.925,17.704 17.423,17.665 13.348,17.664 9.145,18.437 5.259,16.477 1.318,14.102 1.512,10.661 2.666,6.851 7.475,-9.028 12.433,-24.86 17.701,-40.592 c 1.238,-3.699 2.113,-7.455 2.812,-11.273 0.356,-1.947 0.617,-3.86 -0.952,-5.462 C 14.771,-43.055 9.94,-28.796 5.218,-14.501 3.604,-9.618 2.688,-4.494 0,0" /></g><g
                 id="g194"
                 transform="translate(172.6697,126.8776)"><path
                   id="path192"
                   style="fill:#9a9899;fill-opacity:1;fill-rule:nonzero;stroke:none"
                   d="m 0,0 c -0.286,5.218 -1.574,10.229 -3.14,15.183 -5.221,16.519 -10.402,33.052 -15.688,49.551 -1.156,3.609 -1.118,6.802 1.833,9.532 0.905,0.758 1.836,0.721 2.784,0.088 -2.249,-15.11 5.006,-27.957 9.89,-41.366 C -3.174,30.9 -2.494,28.67 -2.281,26.3 -1.345,19.853 0.156,13.588 3.641,7.959 5.776,3.33 7.507,-1.427 8.211,-6.509 c 0.598,-5.622 2.657,-10.851 4.296,-16.199 0.728,-2.376 2.354,-4.761 0.501,-7.34 C 13.005,-31.354 13.003,-32.66 13,-33.966 9.219,-29.915 11.58,-23.073 6.48,-19.622 4.278,-13.096 3.466,-6.109 0,0" /></g><g
                 id="g198"
                 transform="translate(808.9402,90.3356)"><path
                   id="path196"
                   style="fill:#c6c5c6;fill-opacity:1;fill-rule:nonzero;stroke:none"
                   d="m 0,0 c 0.04,0.854 0.08,1.708 0.12,2.563 4.809,8.185 6.38,17.633 10.217,26.199 0.859,1.918 1.107,4.185 3.19,5.375 1.269,0.235 1.635,-0.795 2.19,-1.561 C 12.244,23.197 8.769,13.819 5.299,4.439 4.567,2.462 4.178,0.197 1.434,-0.04 0.956,-0.026 0.478,-0.014 0,0" /></g><g
                 id="g202"
                 transform="translate(799.947,78.5553)"><path
                   id="path200"
                   style="fill:#a9a8a8;fill-opacity:1;fill-rule:nonzero;stroke:none"
                   d="M 0,0 -3.99,0.032 C -2.266,2.037 0.001,2.688 2.543,2.649 2.139,1.341 1.228,0.519 0,0" /></g><g
                 id="g206"
                 transform="translate(824.657,122.9117)"><path
                   id="path204"
                   style="fill:#c6c5c6;fill-opacity:1;fill-rule:nonzero;stroke:none"
                   d="m 0,0 c -0.427,0.438 -0.854,0.876 -1.28,1.314 -1.065,1.002 -1.154,2.247 -0.901,3.579 0.756,2.404 1.884,4.672 2.64,7.082 1.593,3.432 2.815,6.986 3.515,10.715 1.026,3.934 2.797,7.59 4.229,11.37 0.62,1.637 0.834,3.958 3.539,3.758 0.449,-0.006 0.898,-0.013 1.347,-0.02 C 10.346,25.998 5.178,15.04 1.233,3.657 0.812,2.441 0.411,1.22 0,0" /></g><g
                 id="g210"
                 transform="translate(839.0388,205.0582)"><path
                   id="path208"
                   style="fill:#acabab;fill-opacity:1;fill-rule:nonzero;stroke:none"
                   d="m 0,0 c -226.058,0.003 -452.116,0.006 -678.174,0.009 1.947,2.076 4.491,1.247 6.779,1.247 C -449.854,1.293 -228.312,1.293 -6.771,1.255 -4.487,1.254 -1.939,2.098 0,0" /></g><g
                 id="g214"
                 transform="translate(836.3992,160.7301)"><path
                   id="path212"
                   style="fill:#acabab;fill-opacity:1;fill-rule:nonzero;stroke:none"
                   d="m 0,0 c -2.164,-5.22 -4.328,-10.439 -6.491,-15.66 -0.875,-0.768 -1.818,-0.771 -2.806,-0.251 -0.448,0.521 -0.734,1.123 -0.865,1.797 0.389,6.027 3.181,11.267 5.482,16.67 2.267,2.298 3.268,5.095 3.234,8.3 1.218,5.668 3.36,11.007 5.745,16.256 4.484,7.069 4.418,7.708 -1.665,15.909 0.002,0.437 0.003,0.875 0.004,1.311 7.592,-1.615 9.99,-6.125 7.225,-15.203 C 7.684,21.972 4.7,15.061 2.134,8.019 1.186,5.417 -0.088,2.885 0,0" /></g><g
                 id="g218"
                 transform="translate(832.5632,163.2975)"><path
                   id="path216"
                   style="fill:#868484;fill-opacity:1;fill-rule:nonzero;stroke:none"
                   d="m 0,0 c -1.782,-5.635 -3.563,-11.27 -5.346,-16.904 -1.035,-2.326 -1.895,-4.709 -2.299,-7.24 -0.21,-1.81 -0.704,-3.539 -1.433,-5.204 -1.021,-2.273 -1.804,-4.651 -2.991,-6.852 -2.945,-7.107 -5.476,-14.362 -8.072,-21.595 -0.777,-2.166 -1.388,-4.528 -3.396,-6.049 -2.94,-2.865 -3.41,-6.943 -4.927,-10.468 -2.257,-5.242 -5.883,-7.814 -11.486,-7.814 -1.956,-10e-4 -3.911,-0.006 -5.867,-0.006 -193.181,0 -386.362,0.058 -579.542,-0.162 -10.295,-0.012 -17.322,2.495 -19.693,13.232 -0.21,0.954 -1.204,1.734 -1.834,2.594 -1.893,7.904 -5.727,15.268 -6.514,23.479 4.388,1.383 4.466,-2.525 5.388,-4.771 2.473,-6.023 3.691,-12.472 5.852,-18.619 3.532,-10.044 6.975,-12.585 17.78,-12.589 69.091,-0.029 138.183,-0.013 207.274,-0.014 122.322,-0.001 244.644,-0.003 366.966,0.003 14.244,0 16.729,1.503 21.614,14.792 10.778,29.33 21.719,58.599 32.287,88.004 2.777,7.729 0.988,10.329 -7.293,10.828 -2.602,0.156 -5.214,0.06 -7.821,0.06 -207.274,0.001 -414.547,0.004 -621.822,-0.021 -4.107,-10e-4 -8.262,0.486 -12.297,-0.711 -5.991,-1.041 -12.052,-0.304 -18.08,-0.593 -6.487,-0.312 -8.032,-2.197 -6.825,-8.577 1.449,-7.662 4.939,-14.724 6.706,-22.306 0.192,-2.301 0.432,-4.614 -1.511,-6.406 -2.421,0.922 -2.566,3.281 -3.202,5.255 -2.618,8.14 -5.115,16.32 -7.726,24.464 -1.396,4.349 -1.259,8.4 1.846,12.027 0.619,0.561 1.335,0.936 2.149,1.128 8.61,0.398 17.225,0.073 25.842,0.181 216.653,-0.03 433.301,0.055 649.946,-0.042 2.61,-0.083 4.802,-0.979 6.272,-3.261 1.129,-2.607 0.886,-5.294 0.422,-7.99 C 10.286,26.693 9.846,25.679 9.108,24.787 7.352,19.15 5.595,13.513 3.839,7.876 2.185,5.433 2.028,2.261 0,0" /></g><g
                 id="g222"
                 transform="translate(823.4089,128.1022)"><path
                   id="path220"
                   style="fill:#b2b1b1;fill-opacity:1;fill-rule:nonzero;stroke:none"
                   d="m 0,0 c -0.011,-1.292 -0.021,-2.584 -0.032,-3.876 -3.947,-7.619 -6.149,-15.898 -9.115,-23.891 -1.063,-2.862 -1.324,-6.468 -5.202,-7.437 -0.005,1.303 -0.009,2.605 -0.014,3.907 1.495,2.624 1.071,5.958 3.094,8.386 1.725,3.169 2.852,6.543 3.46,10.096 0.217,2.135 1.585,3.884 1.997,5.953 1.916,2.186 1.995,5.655 4.958,7.115 C -0.57,0.17 -0.285,0.085 0,0" /></g><g
                 id="g226"
                 transform="translate(818.196,121.5807)"><path
                   id="path224"
                   style="fill:#939191;fill-opacity:1;fill-rule:nonzero;stroke:none"
                   d="m 0,0 -1.351,-6.486 c -1.68,-3.34 -2.289,-7.079 -3.891,-10.449 -1.614,-2.458 -1.292,-5.88 -3.908,-7.839 -0.007,0.881 -0.013,1.764 -0.02,2.647 2.734,9.828 6.059,19.441 10.442,28.669 C 2.749,3.991 2.341,1.809 0,0" /></g><g
                 id="g230"
                 transform="translate(159.5867,201.1432)"><path
                   id="path228"
                   style="fill:#9d9c9c;fill-opacity:1;fill-rule:nonzero;stroke:none"
                   d="M 0,0 C -0.429,-0.007 -0.858,-0.009 -1.287,-0.009 L -3.912,0 c 2.799,3.351 6.67,2.602 10.289,2.603 179.398,0.018 358.797,0.018 538.195,0.017 44.958,0 89.916,-0.008 134.874,-0.012 7.77,-4.303 8.798,-10.412 2.638,-15.667 -0.002,0.873 -0.004,1.746 -0.007,2.619 1.027,2.613 1.036,5.226 -0.007,7.837 -1.307,0.873 -2.615,1.744 -3.923,2.616 -2.468,1.28 -5.124,0.625 -7.679,0.625 C 455.924,0.675 241.381,0.67 26.842,0.671 17.902,0.267 8.917,1.52 0,0" /></g><g
                 id="g234"
                 transform="translate(185.6697,198.5445)"><path
                   id="path232"
                   style="fill:#706e6e;fill-opacity:1;fill-rule:nonzero;stroke:none"
                   d="M 0,0 C 2.353,1.465 4.974,1.295 7.584,1.295 218.986,1.286 430.389,1.287 641.79,1.255 c 2.141,0 4.318,-0.257 6.412,-0.702 4.901,-1.043 7.087,-3.782 5.27,-8.927 -3.601,-10.198 -6.975,-20.478 -10.714,-30.624 -8.088,-21.94 -16.337,-43.819 -24.541,-65.716 -3.054,-8.151 -7.467,-11.324 -16.149,-11.325 -194.021,-0.02 -388.042,-0.02 -582.062,0.001 -8.942,10e-4 -13.429,3.328 -16.305,11.955 -2.533,7.597 -4.936,15.237 -7.324,22.882 -0.485,1.553 -0.975,2.892 -2.884,2.965 -0.201,5.079 -3.067,9.423 -3.955,14.313 -2.625,5.93 -2.997,12.659 -6.477,18.286 l -1.348,6.481 c 0.011,2.182 0.021,4.364 0.032,6.547 4.495,-0.097 4.733,-3.953 5.666,-6.829 6.494,-20.026 12.777,-40.121 19.322,-60.129 3.835,-11.726 4.397,-12.051 16.59,-12.051 191.899,-0.007 383.796,-0.007 575.694,10e-4 11.617,0 12.758,1.035 16.884,12.085 10.097,27.043 19.754,54.247 29.964,81.25 4.581,12.115 5.614,15.25 -10.506,15.237 -207.11,-0.156 -414.22,-0.103 -621.332,-0.101 -3.042,0 -6.093,-0.151 -9.123,0.118 C 2.843,-2.847 0.37,-3.042 0,0" /></g><g
                 id="g238"
                 transform="translate(168.7302,152.9078)"><path
                   id="path236"
                   style="fill:#868484;fill-opacity:1;fill-rule:nonzero;stroke:none"
                   d="M 0,0 C 5.521,-4.904 5.888,-11.635 6.479,-18.286 1.689,-13.122 1.363,-6.378 0,0" /></g><g
                 id="g242"
                 transform="translate(827.3093,145.067)"><path
                   id="path240"
                   style="fill:#b2b1b1;fill-opacity:1;fill-rule:nonzero;stroke:none"
                   d="m 0,0 2.599,0.003 c -0.395,-3.819 -1.165,-7.499 -3.901,-10.445 -0.214,0.228 -0.427,0.457 -0.642,0.684 -1.014,2.55 0.337,4.899 0.621,7.341 C -1.147,-1.466 -0.76,-0.631 0,0" /></g><g
                 id="g246"
                 transform="translate(826.0076,134.6246)"><path
                   id="path244"
                   style="fill:#b2b1b1;fill-opacity:1;fill-rule:nonzero;stroke:none"
                   d="m 0,0 c 0.056,-2.541 -0.577,-4.809 -2.599,-6.522 l -0.047,0.032 c -1.056,1.05 -1.209,2.307 -0.854,3.685 0.792,1.384 1.191,3.261 3.468,2.831 z" /></g><g
                 id="g250"
                 transform="translate(832.5632,163.2975)"><path
                   id="path248"
                   style="fill:#9d9c9c;fill-opacity:1;fill-rule:nonzero;stroke:none"
                   d="M 0,0 C -0.065,3.281 0.871,6.073 3.839,7.875 3.724,4.683 4.293,1.156 0,0" /></g><g
                 id="g254"
                 transform="translate(827.3093,145.067)"><path
                   id="path252"
                   style="fill:#939192;fill-opacity:1;fill-rule:nonzero;stroke:none"
                   d="m 0,0 c -0.011,-0.858 -0.021,-1.716 -0.032,-2.574 -1.102,-1.156 -0.636,-4.552 -3.849,-2.693 0.322,2.74 1.267,5.121 3.79,6.593 C -0.061,0.884 -0.03,0.442 0,0" /></g><g
                 id="g258"
                 transform="translate(185.6697,198.5445)"><path
                   id="path256"
                   style="fill:#696767;fill-opacity:1;fill-rule:nonzero;stroke:none"
                   d="m 0,0 c 2.371,-2.369 5.368,-1.262 8.058,-1.263 210.549,-0.056 421.099,-0.051 631.649,-0.052 11.108,0 13.278,-2.772 9.466,-13.276 -10.861,-29.915 -21.954,-59.745 -32.941,-89.615 -2.37,-6.444 -6.555,-9.363 -13.796,-9.358 -194.253,0.135 -388.506,0.107 -582.76,0.113 -8.664,0 -10.86,1.522 -13.594,9.989 -6.922,21.429 -13.686,42.908 -20.648,64.323 -0.76,2.334 -0.736,5.341 -3.689,6.53 -2.38,7.358 -4.984,14.653 -7.078,22.091 -2.185,7.766 -0.013,10.457 7.857,10.515 C -11.65,0.039 -5.825,0.002 0,0" /></g><g
                 id="g262"
                 transform="translate(185.6687,202.4576)"><path
                   id="path260"
                   style="fill:#939191;fill-opacity:1;fill-rule:nonzero;stroke:none"
                   d="m 0,0 c 214.448,0 428.896,0.005 643.344,-0.058 2.903,0 6.109,1.168 8.721,-1.244 -217.355,0.015 -434.711,0.03 -652.066,0.044 -0.426,0.28 -0.567,0.56 -0.426,0.839 C -0.285,-0.14 -0.144,0 0,0" /></g><g
                 id="g266"
                 transform="translate(185.6687,202.4576)"><path
                   id="path264"
                   style="fill:#939192;fill-opacity:1;fill-rule:nonzero;stroke:none"
                   d="M 0,0 C 0.001,-0.42 0,-0.84 -0.001,-1.259 -8.694,-1.276 -17.388,-1.295 -26.082,-1.314 -17.516,1.664 -8.675,-0.812 0,0" /></g><g
                 id="g270"
                 transform="translate(823.407,132.0211)"><path
                   id="path268"
                   style="fill:#a7a5a6;fill-opacity:1;fill-rule:nonzero;stroke:none"
                   d="m 0,0 c -0.015,-1.296 -0.03,-2.591 -0.046,-3.887 -2.797,-1.338 -1.3,-6.057 -5.165,-6.553 1.141,2.042 1.484,4.237 1.273,6.542 0.912,2.162 1.824,4.325 2.737,6.488 C 0.882,2.507 0.879,1.457 0,0" /></g><g
                 id="g274"
                 transform="translate(823.407,132.0211)"><path
                   id="path272"
                   style="fill:#acabab;fill-opacity:1;fill-rule:nonzero;stroke:none"
                   d="M 0,0 C -0.042,1.031 -0.219,1.999 -1.202,2.591 -0.794,4.32 -0.387,6.051 0.021,7.78 2.02,7.654 2.543,9.639 3.87,10.472 3.437,7.857 3.003,5.243 2.568,2.63 1.712,1.753 0.856,0.877 0,0" /></g><g
                 id="g278"
                 transform="translate(841.657,198.5406)"><path
                   id="path276"
                   style="fill:#939191;fill-opacity:1;fill-rule:nonzero;stroke:none"
                   d="M 0,0 C 1.966,-2.611 1.961,-5.224 0.007,-7.838 0.005,-5.225 0.002,-2.612 0,0" /></g><g
                 id="g282"
                 transform="translate(812.9539,104.6461)"><path
                   id="path280"
                   style="fill:#a5a4a4;fill-opacity:1;fill-rule:nonzero;stroke:none"
                   d="M 0,0 C 0.374,3.827 1.148,7.504 3.892,10.448 3.544,6.612 2.776,2.933 0,0" /></g><g
                 id="g286"
                 transform="translate(499.2234,194.6246)"><path
                   id="path284"
                   style="fill:#5e5b5b;fill-opacity:1;fill-rule:nonzero;stroke:none"
                   d="m 0,0 c 108.448,0 216.897,0 325.345,-0.002 9.828,0 11.032,-1.388 7.714,-10.477 -7.722,-21.154 -15.889,-42.145 -23.503,-63.336 -3.136,-8.731 -6.247,-17.425 -9.834,-25.997 -2.053,-4.908 -4.835,-6.767 -9.507,-7.098 -1.514,-0.108 -3.041,-0.021 -4.563,-0.021 H -290.71 c -10.991,0 -12.99,1.669 -16.199,11.927 -8.405,26.865 -16.981,53.679 -25.494,80.511 -0.459,1.446 -1.045,2.855 -1.441,4.318 -2.181,8.068 -0.562,10.171 7.847,10.171 C -217.331,0.001 -108.665,0 0,0" /></g><g
                 id="g290"
                 transform="translate(498.6472,190.7106)"><path
                   id="path288"
                   style="fill:#5a5758;fill-opacity:1;fill-rule:nonzero;stroke:none"
                   d="m 0,0 c 106.932,0 213.863,0.001 320.795,-0.001 9.834,-0.001 10.632,-0.897 7.389,-9.879 -9.857,-27.292 -19.833,-54.54 -29.844,-81.775 -1.786,-4.862 -4.893,-7.55 -10.735,-7.546 -192.998,0.119 -385.997,0.115 -578.996,0.017 -5.745,-0.003 -8.754,2.306 -10.417,7.599 -8.956,28.51 -17.977,57.001 -27.165,85.438 -1.458,4.514 -0.088,6.128 4.265,6.142 C -322.969,0 -321.23,0 -319.492,0 Z" /></g></g></g></g></g></g><g
       id="g296"><g
         id="g298"><g
           id="g304"><g
             id="g306"><path
               id="path314"
               style="fill:url(#linearGradient312);stroke:none"
               d="M 138.773,215.281 179.258,88.78 h 613.636 l 46.422,126.501 z" /></g></g></g></g><g
       id="g316"><g
         clip-path="url(#clipPath322)"
         id="g318"><path
           id="path324"
           style="fill:#ffffff;fill-opacity:1;fill-rule:nonzero;stroke:none"
           d="m 354.107,88.78 h -6.919 v 126.501 h 6.919 z" /><g
           transform="translate(501.364,160.4918)"
           id="g326"><path
             id="path328"
             style="fill:#ffffff;fill-opacity:1;fill-rule:nonzero;stroke:none"
             d="m 0,0 c 0,-11.013 -7.314,-18.971 -16.639,-18.971 h -32.314 c -5.225,-8.841 -12.459,-13.343 -22.026,-13.343 -14.147,0 -25.4,11.896 -25.4,27.33 v 22.507 h 11.253 V -3.939 c 0,-10.37 5.306,-17.925 14.147,-17.925 8.682,0 14.068,7.314 14.068,17.925 v 21.462 h 11.334 V -4.984 c 0,-1.125 -0.08,-2.17 -0.16,-3.215 h 5.948 c 3.777,0 5.707,2.411 5.707,7.234 v 18.408 h 11.254 V -0.081 c 0,-2.974 -0.483,-5.707 -1.367,-8.118 h 7.154 c 3.778,0 5.707,2.411 5.707,7.234 v 18.408 l 11.334,0 z" /></g><g
           transform="translate(530.8679,148.9166)"
           id="g330"><path
             id="path332"
             style="fill:#ffffff;fill-opacity:1;fill-rule:nonzero;stroke:none"
             d="m 0,0 c 0,-7.396 -1.849,-12.701 -5.627,-15.996 -3.456,-3.136 -9.083,-4.663 -16.8,-4.663 v 9.084 c 7.396,0 11.093,3.536 11.093,10.61 v 29.984 l 11.334,0 z" /></g><g
           transform="translate(590.5134,141.5211)"
           id="g334"><path
             id="path336"
             style="fill:#ffffff;fill-opacity:1;fill-rule:nonzero;stroke:none"
             d="m 0,0 h -52.089 v 10.771 h 29.18 c 0,11.254 -6.11,16.238 -20.418,16.238 v 9.405 c 7.074,0 12.057,-0.482 15.032,-1.527 11.093,-3.94 16.64,-11.898 16.64,-24.035 H 0 Z" /></g><path
           id="path338"
           style="fill:#ffffff;fill-opacity:1;fill-rule:nonzero;stroke:none"
           d="m 605.546,141.521 h -17.202 v 10.771 h 17.202 z" /><path
           id="path340"
           style="fill:#ffffff;fill-opacity:1;fill-rule:nonzero;stroke:none"
           d="M 621.462,141.521 H 604.26 v 10.771 h 17.202 z" /><path
           id="path342"
           style="fill:#ffffff;fill-opacity:1;fill-rule:nonzero;stroke:none"
           d="m 637.378,141.521 h -17.202 v 10.771 h 17.202 z" /><path
           id="path344"
           style="fill:#ffffff;fill-opacity:1;fill-rule:nonzero;stroke:none"
           d="m 653.294,141.521 h -17.202 v 10.771 h 17.202 z" /><path
           id="path346"
           style="fill:#ffffff;fill-opacity:1;fill-rule:nonzero;stroke:none"
           d="m 669.21,141.521 h -17.202 v 10.771 h 17.202 z" /><path
           id="path348"
           style="fill:#ffffff;fill-opacity:1;fill-rule:nonzero;stroke:none"
           d="m 685.127,141.521 h -17.202 v 10.771 h 17.202 z" /><path
           id="path350"
           style="fill:#ffffff;fill-opacity:1;fill-rule:nonzero;stroke:none"
           d="m 701.043,141.521 h -17.202 v 10.771 h 17.202 z" /><path
           id="path352"
           style="fill:#ffffff;fill-opacity:1;fill-rule:nonzero;stroke:none"
           d="m 716.959,141.521 h -17.202 v 10.771 h 17.202 z" /><g
           transform="translate(751.7654,152.5338)"
           id="g354"><path
             id="path356"
             style="fill:#ffffff;fill-opacity:1;fill-rule:nonzero;stroke:none"
             d="m 0,0 c 0,6.35 -2.412,9.565 -7.154,9.565 h -0.804 c -4.1,0 -6.913,-3.778 -6.913,-9.083 0,-5.466 2.732,-9.244 7.556,-9.244 C -2.895,-8.762 0,-5.225 0,0 m 11.173,0.401 c 0,-10.77 -7.235,-18.327 -18.488,-18.327 -6.833,0 -11.978,2.331 -15.273,6.913 h -14.47 v 10.772 h 11.174 c 0,11.495 6.591,18.809 18.167,18.809 11.574,0 18.89,-7.154 18.89,-18.167" /></g></g></g><g
       id="g358"><g
         id="g360"><g
           id="g366"><g
             id="g368"><path
               id="path378"
               style="fill:url(#linearGradient376);stroke:none"
               d="m 162.359,185.987 c 0,-48.366 39.207,-87.573 87.574,-87.573 v 0 c 48.366,0 87.573,39.207 87.573,87.573 v 0 c 0,48.365 -39.207,87.573 -87.573,87.573 v 0 c -48.367,0 -87.574,-39.208 -87.574,-87.573" /></g></g></g></g><g
       id="g380"><g
         clip-path="url(#clipPath386)"
         id="g382"><g
           transform="translate(340.3015,214.4264)"
           id="g388"><path
             id="path390"
             style="fill:#c4894e;fill-opacity:1;fill-rule:nonzero;stroke:none"
             d="m 0,0 c -0.363,-0.938 -1.064,-2.187 -1.105,-2.277 -0.062,-0.138 -5.911,-6.122 -6.125,-6.139 -0.215,-0.019 0.609,4.801 1.281,5.953 0.67,1.151 2.819,4.014 3.29,4.276 C -2.19,2.078 0.198,0.51 0,0" /></g><g
           transform="translate(217.1072,206.5524)"
           id="g392"><path
             id="path394"
             style="fill:#edbb7e;fill-opacity:1;fill-rule:nonzero;stroke:none"
             d="m 0,0 14.318,2.164 c 4.339,1.513 8.362,6.12 8.362,8.906 0,0.087 0.03,7.763 0.03,7.763 5.507,-2.666 10.21,-3.986 10.21,-3.986 0,0 3.993,1.202 9.088,3.926 0,0 0.029,-7.545 0.029,-7.633 0,-2.832 4.737,-7.546 9.346,-8.981 L 65.673,0 c 6.004,0 10.872,-5.987 10.872,-13.372 0,-7.384 -4.868,-13.371 -10.872,-13.371 H 0 c -6.004,0 -10.872,5.987 -10.872,13.371 C -10.872,-5.987 -6.004,0 0,0" /></g><g
           transform="translate(217.1072,206.5524)"
           id="g396"><path
             id="path398"
             style="fill:#ffffff;fill-opacity:1;fill-rule:nonzero;stroke:none"
             d="m 0,0 14.318,2.164 c 0.65,0.226 1.291,0.529 1.914,0.878 l 7.986,-13.222 8.249,8.849 8.247,-8.849 L 48.6,3.401 C 49.505,2.883 50.444,2.45 51.383,2.159 L 65.673,0 c 6.004,0 10.872,-5.987 10.872,-13.372 0,-7.384 -4.868,-13.371 -10.872,-13.371 H 0 c -6.004,0 -10.872,5.987 -10.872,13.371 C -10.872,-5.987 -6.004,0 0,0" /></g><g
           transform="translate(331.0798,212.7701)"
           id="g400"><path
             id="path402"
             style="fill:#edbb7e;fill-opacity:1;fill-rule:nonzero;stroke:none"
             d="m 0,0 c 0.473,0.796 0.895,1.266 1.169,1.424 0.277,0.156 3.336,3.539 3.336,3.539 0,0 1.675,0.042 0.702,-2.926 C 4.234,-0.93 3.865,-1.357 3.494,-1.505 3.123,-1.652 3.614,-1.758 3.492,-2.035 3.368,-2.314 2.314,-4.925 2.197,-5.637 c -0.093,-0.575 2.374,-3.171 1.312,-6.549 0.872,0.761 2.616,3.291 9.576,0.815 -0.036,-0.258 -0.105,-1.381 -1.746,-2.785 -1.038,-1.827 -6.417,-7.401 -8.234,-7.423 l -0.725,-0.903 -7.582,5.067 0.446,1.165 c -0.235,0.419 -0.389,0.914 -0.446,1.456 C -5.418,-12.731 -3.476,-6.191 0,0" /></g><g
           transform="translate(248.573,199.1246)"
           id="g404"><path
             id="path406"
             style="fill:#024b68;fill-opacity:1;fill-rule:nonzero;stroke:none"
             d="m 0,0 c 0,-0.757 0.613,-1.371 1.37,-1.371 0.757,0 1.371,0.614 1.371,1.371 0,0.757 -0.614,1.37 -1.371,1.37 C 0.613,1.37 0,0.757 0,0" /></g><g
           transform="translate(248.573,192.3766)"
           id="g408"><path
             id="path410"
             style="fill:#024b68;fill-opacity:1;fill-rule:nonzero;stroke:none"
             d="m 0,0 c 0,-0.758 0.613,-1.372 1.37,-1.372 0.757,0 1.371,0.614 1.371,1.372 0,0.756 -0.614,1.37 -1.371,1.37 C 0.613,1.37 0,0.756 0,0" /></g><g
           transform="translate(248.573,185.4283)"
           id="g412"><path
             id="path414"
             style="fill:#024b68;fill-opacity:1;fill-rule:nonzero;stroke:none"
             d="m 0,0 c 0,-0.758 0.613,-1.372 1.37,-1.372 0.757,0 1.371,0.614 1.371,1.372 0,0.756 -0.614,1.369 -1.371,1.369 C 0.613,1.369 0,0.756 0,0" /></g><g
           transform="translate(238.3406,215.5758)"
           id="g416"><path
             id="path418"
             style="fill:#d3d3d3;fill-opacity:1;fill-rule:nonzero;stroke:none"
             d="M 0,0 11.226,-9.688 22.463,0 27.552,-5.836 19.48,-19.203 11.233,-10.354 2.984,-19.203 -5.09,-5.836 Z" /></g><g
           transform="translate(260.8034,215.5758)"
           id="g420"><path
             id="path422"
             style="fill:#ffffff;fill-opacity:1;fill-rule:nonzero;stroke:none"
             d="M 0,0 -11.229,-9.651 -2.982,-17.9 5.089,-5.44 Z" /></g><g
           transform="translate(238.3406,215.5758)"
           id="g424"><path
             id="path426"
             style="fill:#ffffff;fill-opacity:1;fill-rule:nonzero;stroke:none"
             d="M 0,0 11.233,-9.651 2.984,-17.9 -5.09,-5.44 Z" /></g><g
           transform="translate(265.4402,280.7526)"
           id="g428"><path
             id="path430"
             style="fill:#db9f5d;fill-opacity:1;fill-rule:nonzero;stroke:none"
             d="M 0,0 C -0.454,0.289 -0.918,0.568 -1.393,0.833 L 6.864,7.441 C 7.191,7.704 7.67,7.65 7.932,7.323 8.193,6.995 8.141,6.517 7.813,6.255 Z" /></g><g
           transform="translate(261.1003,283.0182)"
           id="g432"><path
             id="path434"
             style="fill:#db9f5d;fill-opacity:1;fill-rule:nonzero;stroke:none"
             d="M 0,0 1.087,9.794 C 1.133,10.21 1.51,10.511 1.926,10.465 2.344,10.418 2.644,10.043 2.598,9.626 L 1.458,-0.654 C 0.981,-0.424 0.494,-0.208 0,0" /></g><g
           transform="translate(230.1423,269.2672)"
           id="g436"><path
             id="path438"
             style="fill:#351601;fill-opacity:1;fill-rule:nonzero;stroke:none"
             d="M 0,0 C 2.833,-8.348 12.642,-12.564 21.908,-9.418 31.177,-6.272 36.394,3.043 33.56,11.391 30.727,19.738 20.917,23.955 11.649,20.81 2.382,17.664 -2.832,8.347 0,0" /></g><g
           transform="translate(220.7312,255.775)"
           id="g440"><path
             id="path442"
             style="fill:#000000;fill-opacity:1;fill-rule:nonzero;stroke:none"
             d="M 0,0 C 0,-16.365 12.707,-29.717 28.383,-29.632 48.395,-29.522 56.766,-16.365 56.766,0 56.766,16.363 44.059,29.63 28.383,29.63 12.707,29.63 0,16.363 0,0" /></g><g
           transform="translate(259.1394,227.0348)"
           id="g444"><path
             id="path446"
             style="fill:#db9f5d;fill-opacity:1;fill-rule:nonzero;stroke:none"
             d="m 0,0 v -4.96 c -3.502,-2.418 -6.484,-3.909 -8.015,-4.607 -0.701,-0.321 -1.461,-0.342 -2.105,-0.077 -1.675,0.687 -5.24,2.269 -9.228,4.761 V 0 Z" /></g><g
           transform="translate(226.8552,251.6432)"
           id="g448"><path
             id="path450"
             style="fill:#edbb7e;fill-opacity:1;fill-rule:nonzero;stroke:none"
             d="M 0,0 C 0.625,0.213 1.303,0.138 1.974,-0.167 1.279,6.462 0.889,13.145 1.897,14.727 6.676,22.222 14.825,26.647 23.09,26.959 h 0.002 0.001 c 8.264,-0.312 16.414,-4.737 21.193,-12.232 0.998,-1.567 0.626,-8.131 -0.057,-14.695 0.484,0.124 0.961,0.127 1.411,-0.024 1.95,-0.656 2.635,-3.852 1.529,-7.134 -0.91,-2.698 -2.746,-4.614 -4.453,-4.847 -0.27,-1.859 -0.453,-3.025 -0.453,-3.025 -4.017,-10.648 -14.616,-15.886 -18.068,-17.339 -0.695,-0.291 -1.473,-0.306 -2.106,-0.042 -3.34,1.392 -14.11,6.626 -18.167,17.381 0,0 -0.185,1.162 -0.452,3.016 -1.838,-0.129 -3.966,1.88 -4.975,4.843 C -2.621,-3.858 -1.947,-0.662 0,0" /></g><g
           transform="translate(220.7312,259.8815)"
           id="g452"><path
             id="path454"
             style="fill:#422009;fill-opacity:1;fill-rule:nonzero;stroke:none"
             d="m 0,0 c 0,14.095 12.707,25.523 28.383,25.523 15.676,0 28.383,-11.428 28.383,-25.523 0,-4.743 -0.953,-9.17 -2.972,-12.964 0.185,2.317 -0.565,4.24 -2.03,4.734 -0.329,0.111 -0.676,0.137 -1.028,0.095 -0.757,-2.962 -1.559,-5.009 -1.559,-3.355 0,1.951 -0.393,9.012 -0.718,11.653 C 41.362,0.924 29.207,2.308 21.161,9.018 19.141,3.622 15.274,-0.154 8.791,-1.827 8.507,-4.342 8.409,-9.641 8.409,-11.385 c 0,-1.635 -0.743,0.349 -1.456,3.256 -0.282,0.011 -0.56,-0.017 -0.829,-0.109 -1.53,-0.521 -2.27,-2.609 -1.977,-5.07 C 1.517,-9.428 0,-4.869 0,0" /></g><g
           transform="translate(248.6179,238.1373)"
           id="g456"><path
             id="path458"
             style="fill:#db9f5d;fill-opacity:1;fill-rule:nonzero;stroke:none"
             d="M 0,0 H 2.658 C 3.54,0 4.288,0.613 4.588,1.477 4.678,1.22 4.732,0.94 4.732,0.647 4.732,-0.626 3.18,-1.035 2.033,-1.035 h -1.41 c -1.144,0 -2.697,0.409 -2.697,1.682 0,0.293 0.054,0.573 0.143,0.83 C -1.63,0.613 -0.881,0 0,0" /></g><g
           transform="translate(273.8318,249.2496)"
           id="g460"><path
             id="path462"
             style="fill:#db9f5d;fill-opacity:1;fill-rule:nonzero;stroke:none"
             d="m 0,0 c 0.02,0.265 -0.498,1.452 -1.145,1.248 -0.987,-0.311 -1.61,-2.235 -2.027,-4.159 -0.415,-1.922 -0.221,-3.323 0,-2.807 0.313,0.729 0.595,3.059 1.769,5.251 C -0.625,0.988 -0.156,-2.08 0,0" /></g><g
           transform="translate(225.5036,249.2496)"
           id="g464"><path
             id="path466"
             style="fill:#db9f5d;fill-opacity:1;fill-rule:nonzero;stroke:none"
             d="m 0,0 c -0.021,0.265 0.498,1.452 1.144,1.248 0.989,-0.311 1.611,-2.235 2.027,-4.159 0.416,-1.922 0.223,-3.323 0,-2.807 C 2.858,-4.989 2.578,-2.659 1.404,-0.467 0.625,0.988 0.156,-2.08 0,0" /></g><g
           transform="translate(257.7331,239.9664)"
           id="g468"><path
             id="path470"
             style="fill:#edae7a;fill-opacity:1;fill-rule:nonzero;stroke:none"
             d="m 0,0 c 0.517,-1.643 3.077,-2.3 5.715,-1.468 2.638,0.831 4.357,2.837 3.839,4.48 C 9.034,4.654 6.478,5.312 3.839,4.479 1.202,3.646 -0.518,1.643 0,0" /></g><g
           transform="translate(242.3357,239.9664)"
           id="g472"><path
             id="path474"
             style="fill:#edae7a;fill-opacity:1;fill-rule:nonzero;stroke:none"
             d="m 0,0 c -0.518,-1.643 -3.078,-2.3 -5.715,-1.468 -2.638,0.831 -4.358,2.837 -3.84,4.48 0.518,1.642 3.077,2.3 5.715,1.467 C -1.202,3.646 0.517,1.643 0,0" /></g><g
           transform="translate(256.4714,233.0943)"
           id="g476"><path
             id="path478"
             style="fill:#c6523c;fill-opacity:1;fill-rule:nonzero;stroke:none"
             d="M 0,0 C 0.788,0.333 0.915,0.187 1.015,0.075 1.144,-0.082 1.19,-0.07 0.679,-0.758 c -0.248,-0.331 -1.1,-1.46 -1.1,-1.46 0,0 -2.215,-4.172 -6.379,-3.987 -4.164,0.187 -5.881,3.559 -6.2,4.246 -0.185,0.395 -0.633,1.008 -0.757,1.227 -0.405,0.726 -0.34,0.746 -0.237,0.852 0.28,0.304 0.313,0.139 0.829,-0.123 0.201,-0.099 3.436,-0.679 6.78,-0.593 C -3.045,-0.508 -0.623,-0.258 0,0" /></g><g
           transform="translate(246.1091,230.6236)"
           id="g480"><path
             id="path482"
             style="fill:#ffffff;fill-opacity:1;fill-rule:nonzero;stroke:none"
             d="M 0,0 C -0.991,0.309 -1.298,1.184 -1.548,2.285 -0.287,2.092 2.033,1.847 4.429,1.946 6.321,2.025 8.261,2.081 9.606,2.304 9.343,1.055 9.125,0.914 8.082,0.388 8.905,0.343 9.06,-0.437 8.951,-1.35 7.701,-2.458 5.502,-3.479 3.753,-3.426 1.144,-3.343 -0.459,-2.58 -1.329,-1.354 -1.113,-0.779 -0.705,-0.026 0,0" /></g><g
           transform="translate(256.2751,233.0221)"
           id="g484"><path
             id="path486"
             style="fill:#f98667;fill-opacity:1;fill-rule:nonzero;stroke:none"
             d="m 0,0 c 0,0 -0.267,-1.125 -5.823,-1.083 -5.508,0.042 -6.655,1.034 -6.655,1.034 0,0 4.161,0.486 6.421,0.447 C -3.971,0.363 0,0 0,0" /></g><g
           transform="translate(256.7732,231.8707)"
           id="g488"><path
             id="path490"
             style="fill:#f98667;fill-opacity:1;fill-rule:nonzero;stroke:none"
             d="m 0,0 c 0,0 -0.925,-5.249 -6.514,-5.429 -5.213,-0.167 -7.2,5.45 -7.2,5.45 0,0 1.999,-3.026 6.823,-3.181 C -2.065,-3.315 0,0 0,0" /></g><g
           transform="translate(255.2361,249.0221)"
           id="g492"><path
             id="path494"
             style="fill:#ffffff;fill-opacity:1;fill-rule:nonzero;stroke:none"
             d="M 0,0 C 2.003,-0.055 2.611,-0.419 3.849,-0.568 5.652,-0.788 7.1,-0.215 7.437,0.174 8.051,0.886 6.444,1.836 4.633,1.994 2.82,2.149 0.317,0.688 0,0" /></g><g
           transform="translate(257.7849,250.3697)"
           id="g496"><path
             id="path498"
             style="fill:#351601;fill-opacity:1;fill-rule:nonzero;stroke:none"
             d="M 0,0 C -0.084,-0.968 0.574,-1.814 1.47,-1.892 2.366,-1.969 3.16,-1.247 3.243,-0.281 3.271,0.018 3.226,0.306 3.124,0.562 2.898,1.137 0.388,0.776 0.1,0.463 0.047,0.318 0.013,0.162 0,0" /></g><g
           transform="translate(258.2468,250.2506)"
           id="g500"><path
             id="path502"
             style="fill:#000000;fill-opacity:1;fill-rule:nonzero;stroke:none"
             d="M 0,0 C -0.057,-0.654 0.389,-1.229 0.997,-1.281 1.604,-1.334 2.143,-0.845 2.199,-0.189 2.231,0.197 2.091,0.557 1.844,0.797 1.673,0.963 1.435,0.875 1.186,0.896 0.809,0.931 0.472,0.948 0.247,0.651 0.11,0.472 0.021,0.248 0,0" /></g><g
           transform="translate(258.0749,250.3609)"
           id="g504"><path
             id="path506"
             style="fill:#ffffff;fill-opacity:1;fill-rule:nonzero;stroke:none"
             d="M 0,0 C -0.017,-0.194 0.203,-0.372 0.492,-0.397 0.781,-0.423 1.027,-0.285 1.044,-0.09 1.062,0.105 0.843,0.284 0.553,0.309 0.264,0.334 0.017,0.196 0,0" /></g><g
           transform="translate(264.4802,249.2672)"
           id="g508"><path
             id="path510"
             style="fill:#000000;fill-opacity:1;fill-rule:nonzero;stroke:none"
             d="m 0,0 c 0,0 -1.12,-0.185 -1.791,-0.01 -0.42,0.408 -0.858,1.287 -2.665,1.53 -1.809,0.245 -3.41,-0.431 -4.806,-1.673 0.317,0.674 1.888,1.748 2.924,1.981 C -3.135,2.548 -0.829,0.889 0,0" /></g><g
           transform="translate(243.6169,249.0221)"
           id="g512"><path
             id="path514"
             style="fill:#ffffff;fill-opacity:1;fill-rule:nonzero;stroke:none"
             d="m 0,0 c -2.004,-0.055 -2.612,-0.419 -3.85,-0.568 -1.803,-0.22 -3.251,0.353 -3.587,0.742 -0.614,0.712 0.992,1.662 2.803,1.82 C -2.821,2.149 -0.318,0.688 0,0" /></g><g
           transform="translate(241.0681,250.3697)"
           id="g516"><path
             id="path518"
             style="fill:#351601;fill-opacity:1;fill-rule:nonzero;stroke:none"
             d="m 0,0 c 0.083,-0.968 -0.574,-1.814 -1.47,-1.892 -0.898,-0.077 -1.691,0.645 -1.774,1.611 -0.027,0.299 0.018,0.587 0.119,0.843 C -2.899,1.137 -0.389,0.776 -0.1,0.463 -0.048,0.318 -0.015,0.162 0,0" /></g><g
           transform="translate(240.6052,250.2506)"
           id="g520"><path
             id="path522"
             style="fill:#000000;fill-opacity:1;fill-rule:nonzero;stroke:none"
             d="m 0,0 c 0.058,-0.654 -0.389,-1.229 -0.996,-1.281 -0.608,-0.053 -1.147,0.436 -1.203,1.092 -0.032,0.386 0.108,0.746 0.355,0.986 0.172,0.166 0.41,0.078 0.658,0.099 0.377,0.035 0.715,0.052 0.939,-0.245 C -0.111,0.472 -0.021,0.248 0,0" /></g><g
           transform="translate(239.238,250.3072)"
           id="g524"><path
             id="path526"
             style="fill:#ffffff;fill-opacity:1;fill-rule:nonzero;stroke:none"
             d="m 0,0 c 0.018,-0.195 -0.201,-0.373 -0.491,-0.397 -0.289,-0.027 -0.535,0.112 -0.553,0.306 -0.017,0.196 0.203,0.374 0.492,0.4 C -0.263,0.333 -0.017,0.195 0,0" /></g><g
           transform="translate(234.3718,249.2672)"
           id="g528"><path
             id="path530"
             style="fill:#000000;fill-opacity:1;fill-rule:nonzero;stroke:none"
             d="M 0,0 C 0,0 1.121,-0.185 1.792,-0.01 2.211,0.398 2.65,1.277 4.457,1.52 6.265,1.765 7.866,1.089 9.262,-0.153 8.945,0.521 7.375,1.595 6.338,1.828 3.135,2.548 0.83,0.889 0,0" /></g><g
           transform="translate(238.5007,256.9596)"
           id="g532"><path
             id="path534"
             style="fill:#000000;fill-opacity:1;fill-rule:nonzero;stroke:none"
             d="M 0,0 C -4.675,0.599 -6.037,-1.426 -6.037,-1.426 -5.178,0.565 -2.69,1.834 0.075,1.518 2.841,1.202 4.978,-0.596 5.364,-2.73 5.364,-2.73 4.593,-0.587 0,0" /></g><g
           transform="translate(259.9636,256.9615)"
           id="g536"><path
             id="path538"
             style="fill:#000000;fill-opacity:1;fill-rule:nonzero;stroke:none"
             d="m 0,0 c -4.132,-0.644 -5.399,-2.676 -5.399,-2.676 0.409,2.13 2.564,3.905 5.333,4.194 2.767,0.288 5.243,-1.006 6.081,-3.006 0,0 -1.726,2.155 -6.015,1.488" /></g><g
           transform="translate(273.1667,194.7174)"
           id="g540"><path
             id="path542"
             style="fill:#ffffff;fill-opacity:1;fill-rule:nonzero;stroke:none"
             d="m 0,0 c -3.223,2.283 17.935,7.836 17.479,7.602 8.072,-12.74 11.901,-29.181 14.803,-29.388 2.027,-0.146 14.332,16.141 20.411,22.655 l 7.89,-5.14 C 54.068,-14.982 40.944,-37.593 29.966,-37.42 18.571,-37.265 8.917,-6.969 0,0" /></g><g
           transform="translate(217.3249,177.2701)"
           id="g544"><path
             id="path546"
             style="fill:#37466d;fill-opacity:1;fill-rule:nonzero;stroke:none"
             d="m 0,0 c -0.004,0.008 -0.009,0.015 -0.014,0.021 v 29.292 c 0,0 14.398,2.244 14.539,2.3 C 15.7,15.541 23.539,3.116 33.042,3.116 c 9.458,0 17.27,12.308 18.5,28.269 L 64.731,29.392 V 0.396 C 64.729,0.391 64.726,0.387 64.722,0.382 c 0.591,-1.604 0.915,-3.338 0.915,-5.148 0,-6.242 -3.842,-11.584 -9.29,-13.796 -0.892,-3.228 -1.605,-6.601 -2.102,-10.095 -0.978,-6.893 -1.482,-13.567 -1.19,-19.74 0.008,-0.007 0.015,-0.014 0.024,-0.021 H 11.164 c 0.088,0.064 0.169,0.138 0.257,0.203 0.272,6.123 -0.233,12.735 -1.201,19.558 -0.486,3.412 -1.173,6.711 -2.033,9.87 -5.334,2.264 -9.077,7.551 -9.077,13.71 0,1.783 0.316,3.493 0.89,5.077" /></g><g
           id="g548"><g
             id="g550" /><g
             id="g562"><g
               style="opacity:0.30000299"
               id="g560"
               clip-path="url(#clipPath554)"><g
                 id="g558"
                 transform="translate(252.1765,246.7242)"><path
                   id="path556"
                   style="fill:#ffffff;fill-opacity:1;fill-rule:nonzero;stroke:none"
                   d="m 0,0 c 0,-2.698 3.451,-4.886 7.708,-4.886 4.258,0 7.709,2.188 7.709,4.886 0,2.698 -3.451,4.886 -7.709,4.886 C 3.451,4.886 0,2.698 0,0" /></g></g></g></g><g
           id="g564"><g
             id="g566" /><g
             id="g578"><g
               style="opacity:0.30000299"
               id="g576"
               clip-path="url(#clipPath570)"><g
                 id="g574"
                 transform="translate(232.1999,246.7955)"><path
                   id="path572"
                   style="fill:#ffffff;fill-opacity:1;fill-rule:nonzero;stroke:none"
                   d="m 0,0 c 0,-2.737 3.385,-4.957 7.563,-4.957 4.177,0 7.564,2.22 7.564,4.957 0,2.739 -3.387,4.959 -7.564,4.959 C 3.385,4.959 0,2.739 0,0" /></g></g></g></g><g
           transform="translate(232.7781,246.9049)"
           id="g580"><path
             id="path582"
             style="fill:#000000;fill-opacity:1;fill-rule:nonzero;stroke:none"
             d="M 0,0 C 0,2.519 3.127,4.56 6.985,4.56 10.843,4.56 13.97,2.519 13.97,0 13.97,-2.519 10.843,-4.561 6.985,-4.561 3.127,-4.561 0,-2.519 0,0 m 19.977,0 c 0,2.519 3.127,4.56 6.986,4.56 2.76,0 5.138,-1.048 6.273,-2.565 2.263,-3.027 -1.123,-6.556 -6.273,-6.556 -3.859,0 -6.986,2.042 -6.986,4.561 M -7.55,3.076 c 0.312,0.693 0.58,1.343 1.301,1.553 1.916,0.559 2.774,-0.521 5.719,-3.023 -1.515,-3.497 2.098,-7.035 7.515,-7.035 4.368,0 7.79,2.345 7.848,5.354 1.354,0.285 2.82,0.304 4.281,-0.008 0.064,-3.005 3.486,-5.346 7.849,-5.346 5.513,0 9.069,3.636 7.476,7.115 2.872,2.447 3.729,3.497 5.625,2.943 0.72,-0.21 0.99,-0.86 1.301,-1.553 0,0 0.327,1.523 -0.963,2.226 -0.348,0.19 -0.863,0.323 -1.25,0.319 C 37.268,5.602 36.229,4.552 33.909,2.567 32.604,4.282 30.013,5.429 26.963,5.429 22.952,5.429 19.741,3.448 19.198,0.796 17.64,1.106 16.23,1.071 14.753,0.774 14.223,3.438 11.006,5.429 6.985,5.429 3.893,5.429 1.276,4.25 -0.011,2.496 -2.39,4.526 -3.431,5.602 -5.337,5.621 -5.724,5.625 -6.238,5.492 -6.587,5.302 -7.877,4.599 -7.55,3.076 -7.55,3.076" /></g><g
           transform="translate(228.7458,129.0553)"
           id="g584"><path
             id="path586"
             style="fill:#333333;fill-opacity:1;fill-rule:nonzero;stroke:none"
             d="m 0,0 v 0 c 0.021,0.434 0.026,0.877 0.038,1.316 h 41.549 c 0.014,-0.502 0.024,-1.004 0.047,-1.499 4.114,-3.117 7.556,-7.109 10.101,-11.707 1.951,-3.533 3.405,-7.563 4.158,-11.598 -10.643,-4.6 -22.376,-7.154 -34.706,-7.154 -12.684,0 -24.735,2.702 -35.618,7.551 0.812,4.109 2.261,7.97 4.233,11.468 C -7.699,-7.183 -4.232,-3.143 0,0" /></g><path
           id="path588"
           style="fill:#6d4222;fill-opacity:1;fill-rule:nonzero;stroke:none"
           d="m 228.685,129.062 h 41.688 v 1.764 h -41.688 z" /><path
           id="path590"
           style="fill:#232323;fill-opacity:1;fill-rule:nonzero;stroke:none"
           d="m 245.589,128.441 h 7.569 v 2.902 h -7.569 z" /><g
           transform="translate(233.8083,162.1275)"
           id="g592"><path
             id="path594"
             style="fill:#6fa558;fill-opacity:1;fill-rule:nonzero;stroke:none"
             d="M 0,0 23.592,-26.084 2.684,-43.865 -11.645,-56.048 -33.573,-30.888 Z" /></g><g
           transform="translate(225.4304,147.6334)"
           id="g596"><path
             id="path598"
             style="fill:#ffffff;fill-opacity:1;fill-rule:nonzero;stroke:none"
             d="m 0,0 14.991,-16.574 5.977,5.407 L 5.977,5.407 Z" /></g><g
           transform="translate(233.7683,146.5836)"
           id="g600"><path
             id="path602"
             style="fill:#a3a3a3;fill-opacity:1;fill-rule:nonzero;stroke:none"
             d="m 0,0 c -0.128,-0.117 -0.138,-0.316 -0.021,-0.445 l 8.533,-9.434 c 0.117,-0.129 0.317,-0.139 0.445,-0.022 0.128,0.117 0.139,0.314 0.021,0.445 L 0.446,-0.023 C 0.329,0.105 0.13,0.116 0,0" /></g><g
           transform="translate(232.6492,145.569)"
           id="g604"><path
             id="path606"
             style="fill:#a3a3a3;fill-opacity:1;fill-rule:nonzero;stroke:none"
             d="M 0,0 C -0.13,-0.115 -0.139,-0.315 -0.022,-0.444 L 8.51,-9.878 c 0.117,-0.129 0.316,-0.139 0.445,-0.022 0.129,0.117 0.139,0.314 0.022,0.445 L 0.444,-0.021 C 0.326,0.106 0.128,0.117 0,0" /></g><g
           transform="translate(231.5281,144.5553)"
           id="g608"><path
             id="path610"
             style="fill:#a3a3a3;fill-opacity:1;fill-rule:nonzero;stroke:none"
             d="M 0,0 C -0.128,-0.116 -0.139,-0.315 -0.022,-0.444 L 8.51,-9.877 c 0.118,-0.13 0.317,-0.139 0.445,-0.022 0.129,0.117 0.139,0.314 0.022,0.445 L 0.443,-0.022 C 0.328,0.106 0.129,0.117 0,0" /></g><g
           transform="translate(223.5857,125.4137)"
           id="g612"><path
             id="path614"
             style="fill:#edbb7e;fill-opacity:1;fill-rule:nonzero;stroke:none"
             d="m 0,0 c 0.868,0.218 2.75,1.229 7.068,1.306 1.231,0.02 5.463,1.009 7.906,3.372 0,0 1.728,-1.313 0.002,-3.499 -1.726,-2.186 -4.298,-3.226 -4.298,-3.226 0,0 -2.426,-0.743 -2.571,-2.477 -0.109,-1.303 0.708,-2.251 4.804,-2.631 l 2.529,2.2 c 0,0 1.173,-0.551 0.917,-1.696 -0.256,-1.145 -0.641,-2.76 -0.641,-2.76 0,0 0.101,-1.871 -2.288,-1.669 l -0.002,-10e-4 c 0.545,-0.282 0.372,-0.891 0.175,-1.626 -0.224,-0.828 -1.078,-1.319 -1.905,-1.097 -3.852,1.048 -5.185,1.377 -1.251,0.317 0.671,-0.179 0.512,-0.719 0.333,-1.387 -0.181,-0.671 -0.87,-1.067 -1.54,-0.887 l -1.626,0.439 C 7.39,-16.296 6.813,-16.594 6.191,-16.426 L 1.383,-15.13 C 0.262,-14.829 -4.802,-9.768 -6.85,-6.396 -8.21,-4.156 -2.602,-0.65 0,0" /></g><g
           transform="translate(208.0242,200.5172)"
           id="g616"><path
             id="path618"
             style="fill:#ffffff;fill-opacity:1;fill-rule:nonzero;stroke:none"
             d="m 0,0 c 2.759,5.135 6.318,5.617 9.287,6.066 v -29.292 c 0.005,-0.006 0.01,-0.013 0.014,-0.021 -0.281,0.436 -0.565,0.868 -0.854,1.288 -3.376,-5.711 -10.01,-19.726 -10.112,-26.327 -0.072,-4.472 14.313,-21.207 17.227,-26.781 l -6.659,-6.659 c -8.107,7.238 -23.037,22.427 -24.214,33.344 C -16.555,-37.054 -5.823,-9.704 0,0" /></g><g
           transform="translate(231.7331,115.5289)"
           id="g620"><path
             id="path622"
             style="fill:#b77641;fill-opacity:1;fill-rule:nonzero;stroke:none"
             d="M 0,0 5.294,-1.187 0.065,0.246 Z" /></g><g
           transform="translate(229.3064,113.0446)"
           id="g624"><path
             id="path626"
             style="fill:#b77641;fill-opacity:1;fill-rule:nonzero;stroke:none"
             d="M 0,0 4.925,-1.158 0.065,0.245 Z" /></g><g
           transform="translate(227.4743,110.9147)"
           id="g628"><path
             id="path630"
             style="fill:#b77641;fill-opacity:1;fill-rule:nonzero;stroke:none"
             d="M 0,0 3.718,-0.834 0.065,0.244 Z" /></g><g
           transform="translate(237.4158,118.9899)"
           id="g632"><path
             id="path634"
             style="fill:#b77641;fill-opacity:1;fill-rule:nonzero;stroke:none"
             d="M 0,0 C -0.068,-0.452 -0.475,-0.76 -0.924,-0.728 L 0.01,0.067 Z" /></g><g
           transform="translate(340.8982,200.2379)"
           id="g636"><path
             id="path638"
             style="fill:#c4894e;fill-opacity:1;fill-rule:nonzero;stroke:none"
             d="M 0,0 C 0,0 1.153,-0.991 1.167,-1.195 1.18,-1.398 0.479,-0.409 -0.285,-0.041 -0.625,0.122 0,0 0,0" /></g><g
           transform="translate(337.2761,210.6373)"
           id="g640"><path
             id="path642"
             style="fill:#567199;fill-opacity:1;fill-rule:nonzero;stroke:none"
             d="m 0,0 c -0.354,-1.451 -2.026,-1.773 -2.026,-1.773 l 7.995,47.18 c 0,0 0.858,4.452 0.255,-0.05 C 4.304,31.065 0.268,1.105 0,0" /></g><g
           transform="translate(342.8669,204.2311)"
           id="g644"><path
             id="path646"
             style="fill:#c4894e;fill-opacity:1;fill-rule:nonzero;stroke:none"
             d="m 0,0 c 0.418,-0.07 1.201,-0.395 1.442,-1.591 0.242,-1.198 0.072,-1.887 -1.099,-2.215 -1.17,-0.327 -2.959,-0.719 -4.015,-1.107 -1.057,-0.389 -2.269,-0.89 -3.214,0.317 -0.941,1.203 3.934,3.338 4.732,3.742 C -1.356,-0.448 -0.136,0.023 0,0" /></g><g
           transform="translate(343.0788,204.3609)"
           id="g648"><path
             id="path650"
             style="fill:#edbb7e;fill-opacity:1;fill-rule:nonzero;stroke:none"
             d="m 0,0 c 0.413,-0.099 1.171,-0.479 1.324,-1.69 0.154,-1.212 -0.066,-1.887 -1.258,-2.13 -1.191,-0.242 -3.002,-0.501 -4.085,-0.812 -1.083,-0.31 -2.329,-0.722 -3.181,0.549 -0.853,1.27 4.165,3.045 4.99,3.39 C -1.384,-0.349 -0.131,0.032 0,0" /></g><g
           transform="translate(342.9919,206.3766)"
           id="g652"><path
             id="path654"
             style="fill:#c4894e;fill-opacity:1;fill-rule:nonzero;stroke:none"
             d="m 0,0 c -0.033,-1.349 -2.091,-2.71 -3.276,-3.659 -1.244,-0.995 -3.613,-2.616 -4.347,-2.917 -1.348,-0.559 -2.487,0.328 -2.542,1.196 -0.064,1.024 0.447,1.772 2.66,3.401 2.214,1.631 4.356,2.932 4.535,3.097 C -1.726,2.263 0.03,1.199 0,0" /></g><g
           transform="translate(340.196,217.9801)"
           id="g656"><path
             id="path658"
             style="fill:#edbb7e;fill-opacity:1;fill-rule:nonzero;stroke:none"
             d="m 0,0 c 0,0 1.357,-1.643 -0.095,-4.152 -1.447,-2.503 -2.687,-2.959 -2.687,-2.959 0,0 0.842,3.42 0.787,5.889 C -2.009,-0.612 0,0 0,0" /></g><g
           transform="translate(338.6394,212.5729)"
           id="g660"><path
             id="path662"
             style="fill:#c4894e;fill-opacity:1;fill-rule:nonzero;stroke:none"
             d="m 0,0 c 0.34,0.146 0.819,0.5 1.378,-0.029 0.559,-0.532 1.399,-0.449 1.434,-1.135 0.032,-0.686 -0.465,-1.884 -3.068,-4.651 -3.647,-3.876 -4.306,-3.289 -4.627,-3.163 -1.418,0.56 -0.891,2.708 1.16,4.913 C -1.672,-1.862 0,0 0,0" /></g><g
           transform="translate(341.3864,208.6188)"
           id="g664"><path
             id="path666"
             style="fill:#edbb7e;fill-opacity:1;fill-rule:nonzero;stroke:none"
             d="m 0,0 c 0.322,-0.054 1.711,-0.667 1.678,-2.015 -0.033,-1.348 -1.84,-2.45 -3.115,-3.272 -1.278,-0.823 -3.928,-2.636 -4.679,-2.886 -0.816,-0.271 -1.647,-0.124 -1.889,0.661 -0.244,0.785 0.543,2.077 2.757,3.709 2.213,1.63 3.936,3.128 4.117,3.295 C -0.95,-0.342 -0.552,0.092 0,0" /></g><g
           transform="translate(339.0007,212.6236)"
           id="g668"><path
             id="path670"
             style="fill:#edbb7e;fill-opacity:1;fill-rule:nonzero;stroke:none"
             d="m 0,0 c 0.313,0.254 0.829,0.471 1.371,0.003 0.544,-0.468 1.173,-0.76 1.191,-1.38 0.017,-0.62 -0.162,-1.471 -2.943,-3.887 -2.782,-2.415 -3.492,-3.263 -4.64,-2.748 -1.147,0.518 -0.474,1.806 1.398,4.032 C -1.743,-1.748 0,0 0,0" /></g><g
           transform="translate(338.4958,221.0826)"
           id="g672"><path
             id="path674"
             style="fill:#edbb7e;fill-opacity:1;fill-rule:nonzero;stroke:none"
             d="M 0,0 C 0,0 1.668,-2.923 2.042,-3.741 2.417,-4.56 1.945,-6.444 1.792,-6.729 1.64,-7.014 -0.271,-5.227 -0.403,-4.881 -0.715,-4.066 -1.552,-0.854 0,0" /></g><g
           transform="translate(334.8083,211.316)"
           id="g676"><path
             id="path678"
             style="fill:#c4894e;fill-opacity:1;fill-rule:nonzero;stroke:none"
             d="M 0,0 C 0,0 -0.462,-0.298 -1.913,0.557 -1.397,-0.026 -0.177,0 -0.23,-0.624 Z" /></g></g></g></g></svg>